<?xml version="1.0" encoding="UTF-8"?>
<svg version="1.1" xmlns="http://www.w3.org/2000/svg" width="400" height="400">
<path d="M0 0 C132 0 264 0 400 0 C400 132 400 264 400 400 C268 400 136 400 0 400 C0 268 0 136 0 0 Z " fill="#FEFEFE" transform="translate(0,0)"/>
<path d="M0 0 C1.05423157 -0.00671722 2.10846313 -0.01343445 3.19464111 -0.02035522 C6.67741618 -0.03934363 10.15999867 -0.04325967 13.64282227 -0.04541016 C16.06511006 -0.05183674 18.48739707 -0.05856499 20.90968323 -0.06558228 C25.98619385 -0.07755662 31.06263641 -0.08126285 36.13916016 -0.08007812 C42.64378505 -0.07987476 49.1479739 -0.10719491 55.65249538 -0.14162254 C60.6547903 -0.1638582 65.65697965 -0.16791671 70.65931892 -0.16685867 C73.05750089 -0.16921896 75.45568558 -0.17806643 77.85381889 -0.19352341 C81.20754456 -0.21311809 84.56032157 -0.20737056 87.9140625 -0.1953125 C88.90386612 -0.20655151 89.89366974 -0.21779053 90.91346741 -0.22937012 C96.58824155 -0.17752154 100.12296863 0.32482521 104.52172852 4.29052734 C106.33266369 7.2378834 106.77243079 9.43961417 106.7756958 12.8759613 C106.78133545 13.79137695 106.7869751 14.7067926 106.79278564 15.64994812 C106.78873718 16.64694229 106.78468872 17.64393646 106.78051758 18.67114258 C106.78402222 19.72683441 106.78752686 20.78252625 106.7911377 21.87020874 C106.79994693 25.36324623 106.79410817 28.8560815 106.78735352 32.34912109 C106.7887005 34.77523335 106.7906413 37.20134534 106.79315186 39.62745667 C106.79610211 44.71414762 106.79180894 49.80076837 106.7824707 54.88745117 C106.77108238 61.40889552 106.77763244 67.93017514 106.78961563 74.45161343 C106.79684201 79.4624404 106.79454259 84.47322832 106.78936005 89.48405647 C106.78802539 91.88863202 106.78966482 94.2932111 106.79431915 96.69778252 C106.79939638 100.05878976 106.79165674 103.4195302 106.78051758 106.78051758 C106.78456604 107.77548752 106.7886145 108.77045746 106.79278564 109.795578 C106.76460699 114.38356667 106.73783498 118.13881637 104.52172852 122.29052734 C103.86172852 122.29052734 103.20172852 122.29052734 102.52172852 122.29052734 C102.52172852 122.95052734 102.52172852 123.61052734 102.52172852 124.29052734 C99.504767 126.0266991 97.3286846 126.54357245 93.86036682 126.55795288 C92.46200089 126.57074783 92.46200089 126.57074783 91.03538513 126.58380127 C90.01968948 126.5828949 89.00399384 126.58198853 87.95751953 126.58105469 C86.34472107 126.59113052 86.34472107 126.59113052 84.69934082 126.60140991 C81.14139194 126.62042426 77.58363131 126.62431571 74.02563477 126.62646484 C71.55468162 126.63288977 69.08372924 126.6396179 66.61277771 126.64663696 C61.43193802 126.65861791 56.25116507 126.66231688 51.0703125 126.66113281 C44.42768069 126.66092944 37.78547584 126.68824705 31.14294529 126.72267723 C26.03946461 126.74489907 20.93608751 126.74897181 15.8325634 126.74791336 C13.38331567 126.75027583 10.93406537 126.7591355 8.48486519 126.77457809 C5.06138181 126.79414433 1.63882999 126.78843641 -1.78466797 126.77636719 C-2.79833939 126.7876062 -3.8120108 126.79884521 -4.85639954 126.8104248 C-9.19423058 126.77150771 -11.75244257 126.73004452 -15.5216217 124.44766235 C-18.54162088 121.11822342 -19.72748283 119.14949764 -19.74569702 114.7114563 C-19.75422699 113.77217285 -19.76275696 112.8328894 -19.77154541 111.86514282 C-19.77063904 110.83650116 -19.76973267 109.8078595 -19.76879883 108.74804688 C-19.77551605 107.66324036 -19.78223328 106.57843384 -19.78915405 105.46075439 C-19.80819433 101.8649033 -19.81206132 98.26923825 -19.81420898 94.67333984 C-19.82063273 92.17853721 -19.82736077 89.68373535 -19.8343811 87.18893433 C-19.84636897 81.95504547 -19.85014589 76.72120398 -19.84887695 71.48730469 C-19.84780848 66.10958022 -19.86189517 60.73214287 -19.88989258 55.35449219 C-19.92318897 48.86709738 -19.9369897 42.37996085 -19.9356575 35.89248276 C-19.93802032 33.4181154 -19.94688193 30.94374551 -19.96232224 28.4694252 C-19.98188838 25.00991326 -19.97618026 21.55132323 -19.96411133 18.09179688 C-19.97535034 17.06720367 -19.98658936 16.04261047 -19.99816895 14.98696899 C-19.96018425 10.7084236 -19.88734715 8.01684357 -17.76040649 4.240448 C-12.30828818 -0.41799599 -6.86788408 -0.00627615 0 0 Z " fill="#1147A7" transform="translate(158.478271484375,96.70947265625)"/>
<path d="M0 0 C7.69143484 5.4299234 13.34505032 11.85286869 16 21 C17.6069868 31.73899833 16.538062 41.7335926 10.08203125 50.6484375 C2.50119857 59.79910633 -6.50378833 64.00044569 -18.1875 65.375 C-28.8099995 64.33016398 -37.88967176 60.8742965 -44.93359375 52.77734375 C-50.88077437 44.975533 -53.71802442 36.37545451 -53.34375 26.53515625 C-51.95950994 16.32638583 -46.74332052 7.45389953 -38.625 1.125 C-27.60511229 -5.87444516 -11.28385437 -7.05719027 0 0 Z " fill="#A9CEF1" transform="translate(220,130)"/>
<path d="M0 0 C5.74129669 3.41149514 8.08198833 8.84974737 9.9609375 15.0234375 C11.96438398 23.76310982 9.86899265 31.96377231 5.6875 39.75 C2.31951353 43.79158377 -0.80512841 46.08786004 -6.05078125 46.9765625 C-13.16356964 47.02087894 -19.06095911 47.00478789 -24.7578125 42.3828125 C-30.77606323 35.44698094 -31.14680534 26.73125715 -30.88671875 17.90625 C-30.07852471 10.52637714 -27.3423881 5.07740993 -21.5 0.375 C-14.87256965 -2.81473263 -6.74955643 -3.03919989 0 0 Z " fill="#F9F9F9" transform="translate(210.5,251.625)"/>
<path d="M0 0 C4.00125 -0.0825 8.0025 -0.165 12.125 -0.25 C13.37555176 -0.28641602 14.62610352 -0.32283203 15.91455078 -0.36035156 C22.23927489 -0.42352748 26.25106745 -0.36674106 31 4 C33.59036348 7.41457004 33.43108741 10.83282171 33 15 C30.97333762 18.70390021 29.51955484 20.65363011 26 23 C26.94875 23.5775 27.8975 24.155 28.875 24.75 C33.04477612 27.75223881 33.04477612 27.75223881 34 31 C34.48613884 34.72706447 34.14096532 36.69355365 32.5625 40.125 C30 43 30 43 21 47 C14.07 47 7.14 47 0 47 C0 31.49 0 15.98 0 0 Z " fill="#161616" transform="translate(232,251)"/>
<path d="M0 0 C9.9 0 19.8 0 30 0 C30 1.98 30 3.96 30 6 C22.41 6 14.82 6 7 6 C7 10.95 7 15.9 7 21 C13.93 21 20.86 21 28 21 C28 22.98 28 24.96 28 27 C21.07 27 14.14 27 7 27 C7 31.95 7 36.9 7 42 C14.59 42 22.18 42 30 42 C30 43.98 30 45.96 30 48 C20.1 48 10.2 48 0 48 C0 32.16 0 16.32 0 0 Z " fill="#5F5F5F" transform="translate(278,250)"/>
<path d="M0 0 C5.74129669 3.41149514 8.08198833 8.84974737 9.9609375 15.0234375 C11.96438398 23.76310982 9.86899265 31.96377231 5.6875 39.75 C2.31951353 43.79158377 -0.80512841 46.08786004 -6.05078125 46.9765625 C-13.16356964 47.02087894 -19.06095911 47.00478789 -24.7578125 42.3828125 C-30.77606323 35.44698094 -31.14680534 26.73125715 -30.88671875 17.90625 C-30.07852471 10.52637714 -27.3423881 5.07740993 -21.5 0.375 C-14.87256965 -2.81473263 -6.74955643 -3.03919989 0 0 Z M-21.1875 7.75 C-26.19288156 13.94713908 -25.23282958 22.89714716 -24.5 30.375 C-22.96834652 34.78008605 -20.6689949 37.36397738 -17.1875 40.375 C-12.4915049 42.12234701 -8.36474072 42.18022895 -3.75 40.1875 C-0.24463405 37.36373298 2.07096705 34.66209884 3.5 30.375 C3.6484944 27.75635839 3.7310027 25.1817523 3.75 22.5625 C3.770625 21.86318359 3.79125 21.16386719 3.8125 20.44335938 C3.84841516 15.64419591 3.03400438 12.4414737 0.5 8.375 C-3.20584188 4.94709626 -5.79270575 3.50146624 -10.875 3.125 C-15.4678187 3.44174612 -17.70162925 4.90966087 -21.1875 7.75 Z " fill="#181818" transform="translate(210.5,251.625)"/>
<path d="M0 0 C4.79207921 3.37623762 4.79207921 3.37623762 6 7 C3.3125 8.25 3.3125 8.25 0 9 C-1.67987227 7.68334336 -3.34466005 6.34736973 -5 5 C-9.49158377 3.61601483 -13.5495257 3.3730967 -17.8125 5.5 C-22.3556012 8.52522052 -24.30208707 12.90626122 -26 18 C-27.04594796 25.30669364 -25.07992418 30.9306913 -21 37 C-17.98846025 39.69453557 -16.53208248 39.96199411 -12.5 40.25 C-11.345 40.1675 -10.19 40.085 -9 40 C-8.071875 39.938125 -7.14375 39.87625 -6.1875 39.8125 C-3.82222292 39.19893683 -3.82222292 39.19893683 -2.8125 36.9375 C-1.80749572 33.30402298 -0.87046889 29.66840461 0 26 C-3.96 26 -7.92 26 -12 26 C-12 24.68 -12 23.36 -12 22 C-6.06 22 -0.12 22 6 22 C6 29.92 6 37.84 6 46 C4.02 46 2.04 46 0 46 C-0.495 43.03 -0.495 43.03 -1 40 C-1.804375 40.804375 -2.60875 41.60875 -3.4375 42.4375 C-7.02187086 46.02187086 -7.56866295 46.19287158 -12.6875 46.3125 C-19.74679476 46.23722316 -22.69886456 44.24762066 -27.6875 39.375 C-31.98596988 33.87018535 -33.66075956 26.34625446 -33.42578125 19.4453125 C-32.540552 14.36133536 -30.5715468 9.46217699 -28 5 C-27.01 4.67 -26.02 4.34 -25 4 C-25 3.34 -25 2.68 -25 2 C-17.13431493 -2.84042158 -8.56763814 -4.07361475 0 0 Z " fill="#131313" transform="translate(129,252)"/>
<path d="M0 0 C3.29120183 3.29120183 3.39516242 4.3365186 3.46899414 8.80053711 C3.45340454 9.92020874 3.45340454 9.92020874 3.4375 11.0625 C3.42775146 11.82892822 3.41800293 12.59535645 3.40795898 13.38500977 C3.08644328 23.69857951 -0.36667382 30.33540021 -7.50390625 37.80078125 C-15.21687913 44.59640524 -24.84852427 47.42297816 -35 47 C-33.02 46.505 -33.02 46.505 -31 46 C-31 40.06 -31 34.12 -31 28 C-30.67 28 -30.34 28 -30 28 C-30 33.28 -30 38.56 -30 44 C-23.39339752 41.35735901 -20.55286706 37.3880736 -17.625 31 C-17.315625 30.01 -17.315625 30.01 -17 29 C-19.31 29 -21.62 29 -24 29 C-22.25 27.9375 -22.25 27.9375 -20 27 C-18.68 27.33 -17.36 27.66 -16 28 C-15.34 20.08 -14.68 12.16 -14 4 C-13.67 4 -13.34 4 -13 4 C-13 6.31 -13 8.62 -13 11 C-8.05 11 -3.1 11 2 11 C1.34 7.37 0.68 3.74 0 0 Z " fill="#B0D5F9" transform="translate(233,148)"/>
<path d="M0 0 C1.98 0 3.96 0 6 0 C6 13.86 6 27.72 6 42 C12.93 42 19.86 42 27 42 C27 43.98 27 45.96 27 48 C18.09 48 9.18 48 0 48 C0 32.16 0 16.32 0 0 Z " fill="#0D0D0D" transform="translate(148,250)"/>
<path d="M0 0 C14.10814476 -0.09352161 28.21624133 -0.16375132 42.32463264 -0.20724869 C48.8757108 -0.22812505 55.42658074 -0.25644436 61.97753906 -0.30175781 C68.29934613 -0.34521266 74.6209529 -0.36913673 80.9428978 -0.37950897 C83.35505197 -0.3869009 85.76719515 -0.40133548 88.17926407 -0.42292023 C91.55741332 -0.45194837 94.93473441 -0.4559561 98.31298828 -0.45410156 C99.31064713 -0.46848267 100.30830597 -0.48286377 101.3361969 -0.49768066 C107.03424419 -0.46382296 110.58630862 0.00924192 115 4 C116.81557264 6.95389305 117.25071082 9.16143475 117.25396729 12.60562134 C117.25960693 13.52537247 117.26524658 14.4451236 117.27105713 15.39274597 C117.26700867 16.39445328 117.26296021 17.39616058 117.25878906 18.42822266 C117.2622937 19.48873337 117.26579834 20.54924408 117.26940918 21.64189148 C117.27821619 25.14934827 117.27238171 28.65660363 117.265625 32.1640625 C117.26697174 34.59736164 117.26891235 37.03066052 117.27142334 39.46395874 C117.27437304 44.56323814 117.27008108 49.66244749 117.26074219 54.76171875 C117.24933571 61.31036248 117.25591576 67.85884249 117.26788712 74.40748024 C117.2750995 79.43105309 117.27282086 84.45458685 117.26763153 89.47816086 C117.26629394 91.89358922 117.26794655 94.30902108 117.27259064 96.72444534 C117.27764694 100.09324867 117.26995869 103.4617832 117.25878906 106.83056641 C117.26283752 107.83632217 117.26688599 108.84207794 117.27105713 109.87831116 C117.26541748 110.79242264 117.25977783 111.70653412 117.25396729 112.64834595 C117.25321323 113.44511057 117.25245918 114.24187519 117.25168228 115.06278419 C117 117 117 117 115 119 C115.33 83.36 115.66 47.72 116 11 C115.34 11 114.68 11 114 11 C113.87625 10.360625 113.7525 9.72125 113.625 9.0625 C113.315625 8.0415625 113.315625 8.0415625 113 7 C112.01 6.505 112.01 6.505 111 6 C111 5.01 111 4.02 111 3 C107.13915054 1.71305018 103.48766321 1.85712739 99.46484375 1.8671875 C98.21315147 1.86575241 98.21315147 1.86575241 96.93617249 1.86428833 C95.17351201 1.8636082 93.41084902 1.86545085 91.64819336 1.86962891 C88.94444178 1.87498625 86.24085582 1.86967483 83.53710938 1.86328125 C81.82552047 1.86394193 80.11393166 1.86522288 78.40234375 1.8671875 C77.59087387 1.86516327 76.77940399 1.86313904 75.94334412 1.86105347 C71.83982358 1.77581022 71.83982358 1.77581022 68 3 C66.2763702 3.09575593 64.54904091 3.12795518 62.82275391 3.12939453 C61.74047516 3.13254669 60.65819641 3.13569885 59.54312134 3.13894653 C58.36615692 3.1369223 57.1891925 3.13489807 55.9765625 3.1328125 C54.76487396 3.13376923 53.55318542 3.13472595 52.30477905 3.13571167 C49.73069202 3.1363937 47.15660328 3.13453783 44.58251953 3.13037109 C40.67606636 3.12506931 36.76973061 3.13029123 32.86328125 3.13671875 C30.35937475 3.13605707 27.85546832 3.13477405 25.3515625 3.1328125 C24.19484039 3.13483673 23.03811829 3.13686096 21.84634399 3.13894653 C14.51714297 3.1182042 7.29334823 2.724327 0 2 C0 1.34 0 0.68 0 0 Z " fill="#234D8F" transform="translate(148,97)"/>
<path d="M0 0 C0.33 0 0.66 0 1 0 C1.73612061 14.54016056 2.08073287 29.05877358 2.160923 43.61536026 C2.17585064 46.31332333 2.19351673 49.0112563 2.21188354 51.709198 C2.26129224 59.14506848 2.31067596 66.58081315 2.32592773 74.0168457 C2.33599491 78.63114495 2.36522388 83.24497644 2.40724754 87.85909081 C2.419515 89.59935163 2.42468661 91.33967823 2.42244911 93.07998085 C2.42010053 95.4930474 2.44220459 97.90474556 2.4699707 100.31762695 C2.46336929 101.02556396 2.45676788 101.73350098 2.44996643 102.46289062 C2.51487204 105.89494502 2.96534211 107.94123099 4.72062683 110.91764832 C9.2076627 115.01683963 14.73718918 114.14856984 20.52783203 114.14526367 C21.37586395 114.14862228 22.22389587 114.1519809 23.09762573 114.15544128 C25.90103629 114.16493515 28.70438686 114.16689462 31.5078125 114.16796875 C33.47297184 114.17118598 35.43813095 114.17455039 37.40328979 114.17805481 C41.530747 114.18404471 45.65818329 114.18589521 49.78564453 114.18530273 C55.02213189 114.18520194 60.25848112 114.19876878 65.49493599 114.21607494 C69.56184477 114.22731812 73.62872167 114.22921809 77.69564438 114.22869301 C79.62254175 114.22985796 81.54944036 114.23419412 83.47632217 114.24202538 C96.12032382 114.28854139 108.45273944 113.58228156 121 112 C120 115 120 115 118 116 C116.52899147 116.10044495 115.05356072 116.13939422 113.57914734 116.14717102 C112.1849054 116.15790398 112.1849054 116.15790398 110.76249695 116.16885376 C109.73961075 116.17154266 108.71672455 116.17423157 107.6628418 116.17700195 C106.05048141 116.18685875 106.05048141 116.18685875 104.4055481 116.19691467 C100.836771 116.21667846 97.26803603 116.22831662 93.69921875 116.23828125 C91.87440948 116.24439454 91.87440948 116.24439454 90.01273537 116.25063133 C83.57497959 116.27150435 77.13724521 116.28580124 70.69946289 116.29516602 C64.04109376 116.30523046 57.38310437 116.34064426 50.72484112 116.38033772 C45.61279161 116.40644855 40.50082226 116.41485291 35.38871193 116.41844749 C32.93387408 116.42332708 30.47904014 116.43497977 28.0242672 116.45348549 C24.59102108 116.4777604 21.15864695 116.4769329 17.7253418 116.4699707 C16.70852829 116.48278076 15.69171478 116.49559082 14.64408875 116.50878906 C10.29788713 116.47661347 7.73220866 116.44285308 3.95466614 114.15812683 C0.96301189 110.85507206 -0.25064499 108.90524738 -0.24050903 104.50117493 C-0.24325836 103.57990814 -0.24600769 102.65864136 -0.24884033 101.7094574 C-0.24164978 100.70101273 -0.23445923 99.69256805 -0.22705078 98.65356445 C-0.22734283 97.58998718 -0.22763489 96.52640991 -0.22793579 95.43060303 C-0.22654022 91.90808002 -0.21096817 88.3857674 -0.1953125 84.86328125 C-0.19158318 82.42376318 -0.18873583 79.98424361 -0.18673706 77.54472351 C-0.17909423 71.11835609 -0.1594401 64.69207883 -0.1373291 58.26574707 C-0.1168847 51.71038024 -0.10773835 45.15499888 -0.09765625 38.59960938 C-0.07619488 25.73303442 -0.04243453 12.866522 0 0 Z " fill="#20468C" transform="translate(139,107)"/>
<path d="M0 0 C2.73723307 4.10584961 2.48184448 7.18155523 2 12 C0.51167948 19.23519319 -1.73413611 25.41016041 -7.6796875 30.125 C-13.5115224 33.41827147 -19.50163817 32.88148126 -26 32 C-30.71265641 30.30087898 -33.93029483 28.12902485 -36.20703125 23.59765625 C-36.96634867 21.40291687 -37.55955948 19.27814061 -38 17 C-36.68 17 -35.36 17 -34 17 C-33.67 16.34 -33.34 15.68 -33 15 C-32.61328125 15.62648438 -32.2265625 16.25296875 -31.828125 16.8984375 C-31.30734375 17.71570313 -30.7865625 18.53296875 -30.25 19.375 C-29.73953125 20.18710937 -29.2290625 20.99921875 -28.703125 21.8359375 C-26.88730044 24.14320081 -25.73941284 25.02051587 -23 26 C-17.63947052 26.42543885 -14.34578355 26.47662684 -10 23 C-6.25734865 18.72268418 -5.82275168 14.87113136 -5.4375 9.3125 C-5.35371094 8.13300781 -5.26992187 6.95351563 -5.18359375 5.73828125 C-5.09271484 4.38283203 -5.09271484 4.38283203 -5 3 C-4.67 3 -4.34 3 -4 3 C-3.87625 3.804375 -3.7525 4.60875 -3.625 5.4375 C-3.41875 6.283125 -3.2125 7.12875 -3 8 C-2.34 8.33 -1.68 8.66 -1 9 C-1.20625 7.88625 -1.4125 6.7725 -1.625 5.625 C-1.74875 4.42875 -1.8725 3.2325 -2 2 C-1.34 1.34 -0.68 0.68 0 0 Z " fill="#141414" transform="translate(219,266)"/>
<path d="M0 0 C0.99 0.33 1.98 0.66 3 1 C5.31383471 5.91881418 5.24192664 10.5683296 5.125 15.875 C5.11597656 16.65875 5.10695312 17.4425 5.09765625 18.25 C5.07428063 20.16680055 5.03841653 22.08344191 5 24 C8.12607441 23.91932999 11.25016751 23.8064771 14.375 23.6875 C15.70917969 23.65366211 15.70917969 23.65366211 17.0703125 23.61914062 C17.92109375 23.58369141 18.771875 23.54824219 19.6484375 23.51171875 C20.82672119 23.47244263 20.82672119 23.47244263 22.02880859 23.43237305 C24.40040156 23.15110403 24.40040156 23.15110403 26 20 C26.38499891 18.34450469 26.72793135 16.6777567 27 15 C27.33 15.66 27.66 16.32 28 17 C28.66 17 29.32 17 30 17 C30.33 15.68 30.66 14.36 31 13 C32.485 13.495 32.485 13.495 34 14 C34.34663084 17.63962385 34.10285583 19.77640037 32.5625 23.125 C28.69292691 27.46647225 24.10411249 29.63362215 18.29858398 30.31884766 C15.49782977 30.39138944 12.73768739 30.35052297 9.9375 30.25 C6.658125 30.1675 3.37875 30.085 0 30 C0 20.1 0 10.2 0 0 Z " fill="#1F1F1F" transform="translate(232,268)"/>
<path d="M0 0 C0.33 0.99 0.66 1.98 1 3 C1.66 3 2.32 3 3 3 C3 5.31 3 7.62 3 10 C3.99 9.67 4.98 9.34 6 9 C5.67 9.99 5.34 10.98 5 12 C4.90271799 13.37647847 4.85824225 14.75708533 4.84851074 16.13696289 C4.84016708 16.97816681 4.83182343 17.81937073 4.82322693 18.68606567 C4.81904251 19.60564056 4.81485809 20.52521545 4.81054688 21.47265625 C4.80225357 22.44363251 4.79396027 23.41460876 4.78541565 24.41500854 C4.76800928 26.52501796 4.75284407 28.63504677 4.73963928 30.74508667 C4.7186304 34.08149285 4.6916064 37.41780159 4.66296387 40.75415039 C4.60324419 47.83606297 4.5510898 54.91802059 4.5 62 C4.44081078 70.20470653 4.37855732 78.4093648 4.30812073 86.61398315 C4.28150361 89.90613257 4.26071509 93.19828675 4.2401123 96.49047852 C4.22351206 98.50276931 4.20664047 100.51505789 4.18945312 102.52734375 C4.18526871 103.44691864 4.18108429 104.36649353 4.17677307 105.31393433 C4.16842941 106.15513824 4.16008575 106.99634216 4.15148926 107.86303711 C4.14633553 108.59380966 4.14118179 109.32458221 4.13587189 110.07749939 C4 112 4 112 3 115 C2.01 115 1.02 115 0 115 C0 76.66666667 0 38.33333333 0 0 Z " fill="#E1F0FD" transform="translate(264,101)"/>
<path d="M0 0 C3.5578125 -0.0928125 3.5578125 -0.0928125 7.1875 -0.1875 C8.29387817 -0.22846802 8.29387817 -0.22846802 9.42260742 -0.27026367 C13.84236338 -0.32577175 16.46742902 0.35888761 20 3 C20.33 3.33 20.66 3.66 21 4 C20.88544153 10.98806683 20.88544153 10.98806683 17.8125 14.5 C12.62590372 17.41986161 5.65849655 16.21352817 0 16 C0 10.72 0 5.44 0 0 Z " fill="#F4F4F4" transform="translate(238,256)"/>
<path d="M0 0 C2.75059381 -0.08107646 5.49879021 -0.14052813 8.25 -0.1875 C9.02730469 -0.21263672 9.80460938 -0.23777344 10.60546875 -0.26367188 C14.05974627 -0.30795748 16.39526147 -0.30377563 19.51953125 1.265625 C21.56550583 3.66249231 21.43949828 5.90039439 21.43359375 8.96484375 C20.81551939 11.86589546 20.28238828 13.03557803 18 15 C14.92610293 15.49957135 11.9161115 15.37481655 8.8125 15.25 C7.96751953 15.23195313 7.12253906 15.21390625 6.25195312 15.1953125 C4.16748427 15.14820586 2.08359856 15.07646233 0 15 C0 10.05 0 5.1 0 0 Z " fill="#FAFAFA" transform="translate(238,277)"/>
<path d="M0 0 C0.66 1.32 1.32 2.64 2 4 C2.99 4.33 3.98 4.66 5 5 C5 9.29 5 13.58 5 18 C12.26 18 19.52 18 27 18 C27 19.32 27 20.64 27 22 C19.74 22 12.48 22 5 22 C5 27.61 5 33.22 5 39 C4.01 39.495 4.01 39.495 3 40 C2.505 38.515 2.505 38.515 2 37 C1.34 37 0.68 37 0 37 C0 24.79 0 12.58 0 0 Z " fill="#0E0E0E" transform="translate(279,254)"/>
<path d="M0 0 C4.95 0 9.9 0 15 0 C14.70544888 7.65832917 11.62827658 13.34261178 8 20 C3.05 18.02 3.05 18.02 -2 16 C-1.34 10.72 -0.68 5.44 0 0 Z " fill="#1547A9" transform="translate(220,161)"/>
<path d="M0 0 C4.24922731 3.6142853 5.77027638 9.64321155 6.44921875 15.0078125 C6.53171875 16.1421875 6.61421875 17.2765625 6.69921875 18.4453125 C1.74921875 18.4453125 -3.20078125 18.4453125 -8.30078125 18.4453125 C-8.63078125 13.1653125 -8.96078125 7.8853125 -9.30078125 2.4453125 C-2.30078125 -0.5546875 -2.30078125 -0.5546875 0 0 Z " fill="#1849A0" transform="translate(228.30078125,140.5546875)"/>
<path d="M0 0 C0.33 0 0.66 0 1 0 C1 34.32 1 68.64 1 104 C-1.4570347 100.31444795 -1.29960599 97.5047857 -1.30297852 93.23974609 C-1.31141785 92.45087509 -1.31985718 91.66200409 -1.32855225 90.84922791 C-1.3543524 88.24062506 -1.3664738 85.63213531 -1.37890625 83.0234375 C-1.39507568 81.21407163 -1.41225508 79.40471452 -1.43040466 77.59536743 C-1.47611893 72.83154337 -1.51091405 68.06770775 -1.54260254 63.30377197 C-1.59446012 55.6706866 -1.65944938 48.03772959 -1.73081779 40.40480423 C-1.75372652 37.73190709 -1.76994719 35.05902648 -1.78553772 32.38607788 C-1.79893839 30.75787166 -1.81255267 29.12966719 -1.82641602 27.50146484 C-1.82902939 26.75236343 -1.83164276 26.00326202 -1.83433533 25.23146057 C-1.56731844 21.82764957 -1.56731844 21.82764957 -3 19 C-2.96157383 16.3574618 -2.85474971 13.75975565 -2.6875 11.125 C-2.65205078 10.39152344 -2.61660156 9.65804687 -2.58007812 8.90234375 C-2.35171341 5.1598891 -2.11918009 3.17877013 0 0 Z " fill="#BFD2EC" transform="translate(138,108)"/>
<path d="M0 0 C4.62 0 9.24 0 14 0 C14.66 5.28 15.32 10.56 16 16 C9 19 9 19 6 19 C2.07226199 12.45376998 0 7.85195202 0 0 Z " fill="#15459B" transform="translate(169,161)"/>
<path d="M0 0 C3.44840758 0.79578636 6.59905478 1.86635159 10 3 C9.34 8.28 8.68 13.56 8 19 C3.38 19 -1.24 19 -6 19 C-5.48010078 11.30549153 -4.31805217 6.47707825 0 0 Z " fill="#0D48AE" transform="translate(175,140)"/>
<path d="M0 0 C0.33 0 0.66 0 1 0 C1.18175781 0.73605469 1.36351562 1.47210938 1.55078125 2.23046875 C2.85331659 7.28697774 4.03980381 11.63018657 7 16 C7 16.66 7 17.32 7 18 C8.093125 17.505 9.18625 17.01 10.3125 16.5 C14 15 14 15 17 15 C16.7525 14.2575 16.7525 14.2575 16.5 13.5 C15.79311182 9.96555911 15.93994845 6.60309299 16 3 C16.33 3 16.66 3 17 3 C17.66 6.3 18.32 9.6 19 13 C21.31 13.33 23.62 13.66 26 14 C26 14.33 26 14.66 26 15 C24.02 15 22.04 15 20 15 C21.92831305 20.75231094 21.92831305 20.75231094 25.25 25.75 C25.8275 26.4925 26.405 27.235 27 28 C26.609375 30.140625 26.609375 30.140625 26 32 C14.63199078 27.90568682 8.28193436 23.5264846 2 13 C-0.0106985 8.54149462 -0.19482105 4.87052626 0 0 Z " fill="#B0D6F7" transform="translate(168,162)"/>
<path d="M0 0 C5.28 0 10.56 0 16 0 C16 4.62 16 9.24 16 14 C11.38 14.33 6.76 14.66 2 15 C-0.28197042 9.29507396 -0.16112419 6.04215727 0 0 Z " fill="#13459F" transform="translate(185,161)"/>
<path d="M0 0 C1.5627962 0.14262412 3.12522696 0.28925511 4.6875 0.4375 C5.99267578 0.55931641 5.99267578 0.55931641 7.32421875 0.68359375 C9.90220641 0.98843609 12.45446295 1.49089259 15 2 C15 6.29 15 10.58 15 15 C9.72 15 4.44 15 -1 15 C-1.14285714 4.28571429 -1.14285714 4.28571429 0 0 Z " fill="#1B4AA6" transform="translate(186,144)"/>
<path d="M0 0 C7.26 0 14.52 0 22 0 C22 0.33 22 0.66 22 1 C15.07 1 8.14 1 1 1 C1 5.95 1 10.9 1 16 C8.59 16 16.18 16 24 16 C24 17.98 24 19.96 24 22 C14.43 22 4.86 22 -5 22 C-5 19.69 -5 17.38 -5 15 C-4.34 15 -3.68 15 -3 15 C-2.67 14.01 -2.34 13.02 -2 12 C-1.67 13.65 -1.34 15.3 -1 17 C-0.67 11.39 -0.34 5.78 0 0 Z " fill="#363636" transform="translate(284,276)"/>
<path d="M0 0 C4.95 0 9.9 0 15 0 C15.13392857 11.25 15.13392857 11.25 14 15 C12.60386935 14.85704109 11.20810692 14.71048442 9.8125 14.5625 C9.03519531 14.48128906 8.25789062 14.40007812 7.45703125 14.31640625 C4.95359214 13.99402379 2.47509476 13.49501895 0 13 C0 8.71 0 4.42 0 0 Z " fill="#19479A" transform="translate(203,161)"/>
<path d="M0 0 C1.49559965 4.94607758 1.06102876 9.87358444 1 15 C-3.95 15 -8.9 15 -14 15 C-14 10.71 -14 6.42 -14 2 C-4.5 0 -4.5 0 0 0 Z " fill="#1246A0" transform="translate(217,144)"/>
<path d="M0 0 C0 5.61 0 11.22 0 17 C-6.70484353 14.76505216 -8.65857204 12.91597081 -12 7 C-12.875 3.5 -12.875 3.5 -13 1 C-8.45368876 0.11291488 -4.76562241 0 0 0 Z " fill="#1446A1" transform="translate(201,176)"/>
<path d="M0 0 C0 5.61 0 11.22 0 17 C-4.29 16.67 -8.58 16.34 -13 16 C-11.8697479 9.21848739 -11.8697479 9.21848739 -9.125 5.75 C-8.61195313 5.08484375 -8.09890625 4.4196875 -7.5703125 3.734375 C-5.13525929 1.04491325 -3.66854833 0 0 0 Z " fill="#27509B" transform="translate(201,127)"/>
<path d="M0 0 C6.93 0 13.86 0 21 0 C21.33 0.99 21.66 1.98 22 3 C22.66 3.66 23.32 4.32 24 5 C17.73 5 11.46 5 5 5 C5 8.63 5 12.26 5 16 C4.67 15.34 4.34 14.68 4 14 C2.68 14 1.36 14 0 14 C0 9.38 0 4.76 0 0 Z M22 2 C25 3 25 3 25 3 Z " fill="#131313" transform="translate(232,251)"/>
<path d="M0 0 C4.29 0.33 8.58 0.66 13 1 C12.0929136 5.535432 11.72729895 6.81903776 9.0625 10.1875 C8.53785156 10.86167969 8.01320312 11.53585938 7.47265625 12.23046875 C6 14 6 14 4 16 C2.68 16 1.36 16 0 16 C0 10.72 0 5.44 0 0 Z " fill="#1E47A0" transform="translate(203,176)"/>
<path d="M0 0 C5.64475025 1.12895005 5.64475025 1.12895005 8.1875 4.3125 C8.67605469 4.90675781 9.16460937 5.50101563 9.66796875 6.11328125 C11.84197714 9.19259519 13 11.17924879 13 15 C6.565 15.495 6.565 15.495 0 16 C0 10.72 0 5.44 0 0 Z " fill="#1B4796" transform="translate(203,128)"/>
<path d="M0 0 C0.84061981 0.00141495 1.68123962 0.0028299 2.54733276 0.00428772 C5.23732025 0.00989388 7.92722509 0.02244739 10.6171875 0.03515625 C12.43880088 0.04017046 14.26041557 0.0447335 16.08203125 0.04882812 C20.55211527 0.05986531 25.02213736 0.07713405 29.4921875 0.09765625 C29.9871875 1.08765625 29.9871875 1.08765625 30.4921875 2.09765625 C24.8821875 1.76765625 19.2721875 1.43765625 13.4921875 1.09765625 C13.4921875 1.75765625 13.4921875 2.41765625 13.4921875 3.09765625 C-12.9078125 3.09765625 -39.3078125 3.09765625 -66.5078125 3.09765625 C-66.5078125 2.76765625 -66.5078125 2.43765625 -66.5078125 2.09765625 C-65.46211594 2.08219505 -65.46211594 2.08219505 -64.39529419 2.06642151 C-57.83243384 1.96853172 -51.26966375 1.86602951 -44.70695686 1.75831699 C-41.33282883 1.70310156 -37.9586921 1.64968382 -34.58447266 1.6003418 C-30.70726984 1.54275958 -26.8302102 1.47903059 -22.953125 1.4140625 C-21.73851593 1.39735001 -20.52390686 1.38063751 -19.27249146 1.36341858 C-18.15148041 1.34347336 -17.03046936 1.32352814 -15.87548828 1.30297852 C-14.88509552 1.28743423 -13.89470276 1.27188995 -12.8742981 1.25587463 C-8.54422164 0.96637458 -4.55148624 -0.02861745 0 0 Z " fill="#124597" transform="translate(226.5078125,97.90234375)"/>
<path d="M0 0 C0.55766052 0.14014023 1.11532104 0.28028046 1.68988037 0.42466736 C4.4983547 1.12411467 7.06696306 1.16274946 9.96191406 1.20532227 C11.16285706 1.22526749 12.36380005 1.24521271 13.60113525 1.26576233 C14.89291687 1.28247482 16.18469849 1.29918732 17.515625 1.31640625 C18.85512921 1.33698963 20.19462713 1.35798646 21.53411865 1.37937927 C25.05215341 1.43445709 28.5702454 1.48392906 32.08837891 1.53222656 C35.68136664 1.58254625 39.27427173 1.63817756 42.8671875 1.69335938 C49.91138655 1.800766 56.9556598 1.90224949 64 2 C64 2.66 64 3.32 64 4 C64.99 4.33 65.98 4.66 67 5 C66.34 5.66 65.68 6.32 65 7 C64.15186186 6.2688693 64.15186186 6.2688693 63.28658962 5.52296829 C60.69364658 3.79595528 59.48691313 3.62682983 56.41456604 3.63250732 C55.49915039 3.62693817 54.58373474 3.62136902 53.64057922 3.6156311 C52.64358505 3.62484589 51.64659088 3.63406067 50.61938477 3.64355469 C49.56369293 3.64151031 48.5080011 3.63946594 47.4203186 3.63735962 C43.92717219 3.63434917 40.43449666 3.65283887 36.94140625 3.671875 C34.51529558 3.67493259 32.08918316 3.67680871 29.66307068 3.67755127 C24.57633759 3.68215621 19.48976263 3.6965885 14.40307617 3.71875 C7.88166567 3.74701731 1.36037986 3.75795998 -5.16108608 3.7624321 C-10.17191313 3.76658913 -15.18271496 3.77640926 -20.19352913 3.78830719 C-22.59810243 3.7940061 -25.00267814 3.79876606 -27.40725517 3.80257416 C-30.76821011 3.80944839 -34.12906677 3.823087 -37.48999023 3.83886719 C-38.98244514 3.84054398 -38.98244514 3.84054398 -40.50505066 3.84225464 C-41.88240387 3.85081985 -41.88240387 3.85081985 -43.2875824 3.85955811 C-44.08158164 3.86253277 -44.87558088 3.86550743 -45.69364071 3.86857224 C-48.20285244 4.01155954 -50.54943043 4.45418777 -53 5 C-52.67 4.01 -52.34 3.02 -52 2 C-51.36328873 1.98969254 -50.72657745 1.97938507 -50.0705719 1.96876526 C-43.46873202 1.86093669 -36.86703522 1.74632039 -30.26538086 1.62768555 C-27.79861431 1.58426057 -25.33181622 1.54259128 -22.86499023 1.50268555 C-19.32786534 1.44516555 -15.79090034 1.38141925 -12.25390625 1.31640625 C-11.14350479 1.29969376 -10.03310333 1.28298126 -8.88905334 1.26576233 C-7.86807053 1.24581711 -6.84708771 1.22587189 -5.79516602 1.20532227 C-4.43948265 1.18200584 -4.43948265 1.18200584 -3.05641174 1.15821838 C-1.00805899 1.22498543 -1.00805899 1.22498543 0 0 Z " fill="#E1F7FD" transform="translate(196,94)"/>
<path d="M0 0 C0.99 0.33 1.98 0.66 3 1 C5.21574644 5.83846672 5.41236113 10.64762783 5.625 15.875 C5.66367188 16.65875 5.70234375 17.4425 5.7421875 18.25 C5.83566622 20.16631367 5.91888495 22.08312319 6 24 C6.66 24.33 7.32 24.66 8 25 C7.34 26.32 6.68 27.64 6 29 C4.02 29 2.04 29 0 29 C0 19.43 0 9.86 0 0 Z " fill="#0C0C0C" transform="translate(232,268)"/>
<path d="M0 0 C2.73261247 4.0989187 2.49450299 7.18782166 2 12 C0.88145391 16.93603564 -0.64118631 21.51825399 -3 26 C-4.65 26 -6.3 26 -8 26 C-7.86722656 25.42894531 -7.73445312 24.85789062 -7.59765625 24.26953125 C-6.05933154 17.20671195 -5.42935274 10.20860655 -5 3 C-4.67 3 -4.34 3 -4 3 C-3.87625 3.804375 -3.7525 4.60875 -3.625 5.4375 C-3.315625 6.7059375 -3.315625 6.7059375 -3 8 C-2.34 8.33 -1.68 8.66 -1 9 C-1.20625 7.88625 -1.4125 6.7725 -1.625 5.625 C-1.74875 4.42875 -1.8725 3.2325 -2 2 C-1.34 1.34 -0.68 0.68 0 0 Z " fill="#1C1C1C" transform="translate(219,266)"/>
<path d="M0 0 C1.32 0 2.64 0 4 0 C6.10330493 3.15495739 6.25056889 3.88691603 6.25396729 7.48536682 C6.25960693 8.40374329 6.26524658 9.32211975 6.27105713 10.26832581 C6.26700867 11.27362839 6.26296021 12.27893097 6.25878906 13.31469727 C6.2622937 14.37506195 6.26579834 15.43542664 6.26940918 16.52792358 C6.27822809 20.04081728 6.2723771 23.55351042 6.265625 27.06640625 C6.2669715 29.50113463 6.26891191 31.93586275 6.27142334 34.37059021 C6.27437474 39.47584592 6.27007601 44.5810317 6.26074219 49.6862793 C6.24934167 56.24279876 6.25591092 62.7991546 6.26788712 69.35566807 C6.27510009 74.38353213 6.27282048 79.41135713 6.26763153 84.43922234 C6.26629379 86.85744178 6.26794707 89.27566473 6.27259064 91.69388008 C6.27764726 95.06758196 6.26995796 98.44101547 6.25878906 101.81469727 C6.26283752 102.82202408 6.26688599 103.82935089 6.27105713 104.86720276 C6.26541748 105.7827594 6.25977783 106.69831604 6.25396729 107.64161682 C6.25321323 108.43968026 6.25245918 109.2377437 6.25168228 110.05999088 C6 112 6 112 4 114 C4.33 78.36 4.66 42.72 5 6 C4.34 6 3.68 6 3 6 C2.814375 5.071875 2.814375 5.071875 2.625 4.125 C2.12802644 1.80879168 2.12802644 1.80879168 0 0 Z " fill="#244389" transform="translate(259,102)"/>
<path d="M0 0 C1.98 0 3.96 0 6 0 C6 0.33 6 0.66 6 1 C4.35 1 2.7 1 1 1 C1 16.18 1 31.36 1 47 C7.6 47 14.2 47 21 47 C20.67 46.01 20.34 45.02 20 44 C13.07 43.505 13.07 43.505 6 43 C6 42.67 6 42.34 6 42 C12.93 42 19.86 42 27 42 C27 43.98 27 45.96 27 48 C18.09 48 9.18 48 0 48 C0 32.16 0 16.32 0 0 Z " fill="#505050" transform="translate(148,250)"/>
<path d="M0 0 C0.33 0 0.66 0 1 0 C1.04634189 13.45627698 1.0818787 26.91253497 1.10362434 40.3688755 C1.11406118 46.61720219 1.12821871 52.86547427 1.15087891 59.11376953 C1.17261063 65.14378776 1.18456938 71.17375346 1.18975449 77.20380783 C1.19344963 79.50429486 1.20066527 81.80477901 1.21146011 84.10524368 C1.22597921 87.32754986 1.22797774 90.54963903 1.22705078 93.77197266 C1.23424133 94.72287781 1.24143188 95.67378296 1.24884033 96.65350342 C1.23372327 101.51039897 0.90376627 105.44099162 -1 110 C-1.66 109.67 -2.32 109.34 -3 109 C-2.67657623 107.72540421 -2.35315247 106.45080841 -2.01992798 105.1375885 C-0.8814191 99.98733738 -0.69373692 95.05752944 -0.68115234 89.79858398 C-0.66608391 88.33357704 -0.66608391 88.33357704 -0.65071106 86.838974 C-0.62005535 83.64135272 -0.60289314 80.44381448 -0.5859375 77.24609375 C-0.56721168 75.01692499 -0.54763722 72.78776321 -0.5272522 70.55860901 C-0.47607451 64.7143873 -0.43637206 58.87014265 -0.39910889 53.02581787 C-0.35897897 47.05296215 -0.30792773 41.08020069 -0.2578125 35.10742188 C-0.16122336 23.40501427 -0.07676438 11.70255327 0 0 Z " fill="#1A449D" transform="translate(263,108)"/>
<path d="M0 0 C5.61 0 11.22 0 17 0 C17.48828125 9.08203125 17.48828125 9.08203125 17 12 C14.13969444 14.31411656 12.69436889 15 9 15 C9.99 11.04 10.98 7.08 12 3 C8.04 3 4.08 3 0 3 C0 2.01 0 1.02 0 0 Z " fill="#111111" transform="translate(117,275)"/>
<path d="M0 0 C0.66 0 1.32 0 2 0 C3.68135964 9.15406916 4.48746753 23.86569228 -0.19921875 32.109375 C-3.46502843 35.70948016 -6.31880758 38.29774821 -11 40 C-11.66 39.67 -12.32 39.34 -13 39 C-12.46890625 38.46632812 -11.9378125 37.93265625 -11.390625 37.3828125 C-0.5660179 25.96561742 -0.2549588 15.09971517 0 0 Z " fill="#1F4B98" transform="translate(236,148)"/>
<path d="M0 0 C4.01349645 0.28001138 5.72035142 0.75763789 8.8125 3.4375 C12.21263212 7.42051191 12.36728833 9.76614124 12 15 C10.8125 16.9375 10.8125 16.9375 9 18 C6.3125 18.1875 6.3125 18.1875 4 18 C4.13019531 17.39671875 4.26039063 16.7934375 4.39453125 16.171875 C4.81960172 13.70884987 5.12087679 11.49955925 5 9 C2.69931981 6.50789479 2.69931981 6.50789479 0 5 C0 3.33333333 0 1.66666667 0 0 Z " fill="#262626" transform="translate(253,251)"/>
<path d="M0 0 C5.94 0 11.88 0 18 0 C18 7.92 18 15.84 18 24 C16.02 24 14.04 24 12 24 C11.67 22.02 11.34 20.04 11 18 C10.67 18.66 10.34 19.32 10 20 C7.9375 20.625 7.9375 20.625 6 21 C6 20.34 6 19.68 6 19 C5.01 18.67 4.02 18.34 3 18 C3.804375 17.87625 4.60875 17.7525 5.4375 17.625 C6.283125 17.41875 7.12875 17.2125 8 17 C8.33 16.34 8.66 15.68 9 15 C10.99285937 14.62633887 12.99363529 14.29259485 15 14 C16.81115956 12.18884044 16.38199448 9.38721773 16.5625 6.9375 C16.706875 4.978125 16.85125 3.01875 17 1 C11.39 1 5.78 1 0 1 C0 0.67 0 0.34 0 0 Z " fill="#3C3C3C" transform="translate(117,274)"/>
<path d="M0 0 C0.33 0.99 0.66 1.98 1 3 C0.53078125 3.62132813 0.0615625 4.24265625 -0.421875 4.8828125 C-2.33654235 7.45149988 -2.34841256 8.7159567 -2.25 11.875 C-2.22421875 12.75800781 -2.1984375 13.64101562 -2.171875 14.55078125 C-1.97128014 17.40925802 -1.4806442 20.17621532 -1 23 C-0.91564347 26.00209991 -0.93995179 28.99758936 -1 32 C-1.66 32 -2.32 32 -3 32 C-3 32.66 -3 33.32 -3 34 C-3.66 34 -4.32 34 -5 34 C-5.28431071 29.43895892 -5.52145648 24.87664846 -5.75 20.3125 C-5.83121094 19.01892578 -5.91242188 17.72535156 -5.99609375 16.39257812 C-6.05410156 15.14541016 -6.11210937 13.89824219 -6.171875 12.61328125 C-6.2347168 11.46641846 -6.29755859 10.31955566 -6.36230469 9.13793945 C-5.91754859 5.28588408 -4.68760455 3.73198417 -2 1 C-1.34 0.67 -0.68 0.34 0 0 Z " fill="#2C5397" transform="translate(145,98)"/>
<path d="M0 0 C0.33 0 0.66 0 1 0 C1.33 2.97 1.66 5.94 2 9 C7.28 9 12.56 9 18 9 C18 9.66 18 10.32 18 11 C12.72 11 7.44 11 2 11 C1.67 13.31 1.34 15.62 1 18 C0.67 18 0.34 18 0 18 C0 15.69 0 13.38 0 11 C-2.29225435 11.11371497 -4.58382388 11.24130964 -6.875 11.375 C-8.78925781 11.47941406 -8.78925781 11.47941406 -10.7421875 11.5859375 C-14.08061699 11.67241106 -14.08061699 11.67241106 -16 14 C-16 10.7 -16 7.4 -16 4 C-15.34 5.32 -14.68 6.64 -14 8 C-10.66024628 8.70788435 -10.66024628 8.70788435 -6.875 8.75 C-4.95300781 8.83507812 -4.95300781 8.83507812 -2.9921875 8.921875 C-2.00476563 8.94765625 -1.01734375 8.9734375 0 9 C0 6.03 0 3.06 0 0 Z " fill="#95B5F1" transform="translate(183,150)"/>
<path d="M0 0 C3.34373475 0.55728913 6.03312999 1.35173889 9 3 C8.1875 4.9375 8.1875 4.9375 7 7 C6.01 7.33 5.02 7.66 4 8 C4 8.66 4 9.32 4 10 C2.5682384 10.69937202 1.12932968 11.38412718 -0.3125 12.0625 C-1.11300781 12.44535156 -1.91351563 12.82820312 -2.73828125 13.22265625 C-5 14 -5 14 -8 13 C-7.236875 12.154375 -6.47375 11.30875 -5.6875 10.4375 C-2.9508582 7.17996332 -1.50585211 3.96276872 0 0 Z " fill="#1C499C" transform="translate(217,178)"/>
<path d="M0 0 C0.33 0 0.66 0 1 0 C1.33 1.98 1.66 3.96 2 6 C2.99 5.01 3.98 4.02 5 3 C5.03738281 3.6290625 5.07476562 4.258125 5.11328125 4.90625 C5.56677121 10.81051149 6.67976914 15.55250146 9 21 C8.01 21.33 7.02 21.66 6 22 C5.34 21.01 4.68 20.02 4 19 C4.33 18.34 4.66 17.68 5 17 C4.01 17 3.02 17 2 17 C2.33 18.65 2.66 20.3 3 22 C-0.84553688 18.15446312 -1.12766624 12.41867994 -1.1875 7.1875 C-1.16276382 4.39231195 -0.90309631 2.70928892 0 0 Z " fill="#161616" transform="translate(97,266)"/>
<path d="M0 0 C-0.40992188 0.60328125 -0.81984375 1.2065625 -1.2421875 1.828125 C-2.05042969 3.02695313 -2.05042969 3.02695313 -2.875 4.25 C-3.40867188 5.03890625 -3.94234375 5.8278125 -4.4921875 6.640625 C-6.19267206 9.21065296 -6.19267206 9.21065296 -8 13 C-10.97 12.01 -13.94 11.02 -17 10 C-14.18496912 4.36993825 -10.43526384 2.01086424 -4.6875 -0.375 C-2 -1 -2 -1 0 0 Z " fill="#2A4F9E" transform="translate(194,129)"/>
<path d="M0 0 C4.62 0 9.24 0 14 0 C13.70544888 7.65832917 10.62827658 13.34261178 7 20 C2.05 18.02 2.05 18.02 -3 16 C-2.67 13.36 -2.34 10.72 -2 8 C-1.34 8.33 -0.68 8.66 0 9 C-0.33 10.65 -0.66 12.3 -1 14 C1.64 14.33 4.28 14.66 7 15 C7.66 12.36 8.32 9.72 9 7 C9.99 7 10.98 7 12 7 C11.67 5.35 11.34 3.7 11 2 C7.37 2 3.74 2 0 2 C0 1.34 0 0.68 0 0 Z " fill="#1F4A96" transform="translate(221,161)"/>
<path d="M0 0 C0.40992188 0.75925781 0.81984375 1.51851562 1.2421875 2.30078125 C1.78101563 3.29464844 2.31984375 4.28851563 2.875 5.3125 C3.67550781 6.79169922 3.67550781 6.79169922 4.4921875 8.30078125 C6.00722126 11.09586458 6.00722126 11.09586458 8 14 C2.41080442 12.36050263 -2.46914578 10.73795473 -7 7 C-7.875 4.75 -7.875 4.75 -8 3 C-2.25 0 -2.25 0 0 0 Z " fill="#214D9A" transform="translate(186,178)"/>
<path d="M0 0 C6.52925336 1.25028256 11.21316824 4.39769463 16 9 C16 9.66 16 10.32 16 11 C11.545 12.485 11.545 12.485 7 14 C3.125 5.375 3.125 5.375 2 2 C1.34 2 0.68 2 0 2 C0 1.34 0 0.68 0 0 Z " fill="#1F4BA4" transform="translate(210,128)"/>
<path d="M0 0 C8.25 0 16.5 0 25 0 C25 1.32 25 2.64 25 4 C17.08 4 9.16 4 1 4 C1.66 3.34 2.32 2.68 3 2 C2.01 1.34 1.02 0.68 0 0 Z " fill="#161616" transform="translate(282,251)"/>
<path d="M0 0 C2.97 0.495 2.97 0.495 6 1 C5.34 6.28 4.68 11.56 4 17 C-0.62 17 -5.24 17 -10 17 C-9.67 13.7 -9.34 10.4 -9 7 C-8.01 7 -7.02 7 -6 7 C-6 9.64 -6 12.28 -6 15 C-3.69 15.33 -1.38 15.66 1 16 C1.02712153 14.083412 1.04645097 12.1667127 1.0625 10.25 C1.07410156 9.18265625 1.08570313 8.1153125 1.09765625 7.015625 C1.01510087 4.46631499 0.74617558 2.42066409 0 0 Z " fill="#1D4793" transform="translate(179,142)"/>
<path d="M0 0 C0.94359375 0.50660156 0.94359375 0.50660156 1.90625 1.0234375 C11.71881835 6.13661318 19.89827229 8.16619077 31 6 C31.33 6.66 31.66 7.32 32 8 C31.67 8.66 31.34 9.32 31 10 C27.58340509 10.05816623 24.16693795 10.09365195 20.75 10.125 C19.29787109 10.15013672 19.29787109 10.15013672 17.81640625 10.17578125 C16.41455078 10.18544922 16.41455078 10.18544922 14.984375 10.1953125 C14.12553711 10.20578613 13.26669922 10.21625977 12.38183594 10.22705078 C9.81598717 9.9824588 8.26838794 9.15740311 6 8 C5.01 8.495 5.01 8.495 4 9 C3.896875 8.401875 3.79375 7.80375 3.6875 7.1875 C2.90614947 4.70138466 1.85104584 3.77056558 0 2 C0 1.34 0 0.68 0 0 Z " fill="#204C9D" transform="translate(180,187)"/>
<path d="M0 0 C-0.66699935 4.40219569 -2.08103484 8.00855246 -4 12 C-4.99 12.495 -4.99 12.495 -6 13 C-6.66 13.99 -7.32 14.98 -8 16 C-9.72194097 12.55611807 -9.37796284 8.77311176 -9 5 C-6.75742962 0.10711917 -5.24920204 -1.57476061 0 0 Z " fill="#121212" transform="translate(107,258)"/>
<path d="M0 0 C0.33 0 0.66 0 1 0 C1.06058594 1.10859375 1.12117187 2.2171875 1.18359375 3.359375 C1.26802951 4.8229282 1.35267599 6.28646925 1.4375 7.75 C1.47681641 8.47960937 1.51613281 9.20921875 1.55664062 9.9609375 C1.76391535 13.46866362 2.1440061 16.57602438 3 20 C6.3 20 9.6 20 13 20 C13 20.33 13 20.66 13 21 C9.04 21 5.08 21 1 21 C1 25.95 1 30.9 1 36 C0.67 36 0.34 36 0 36 C-0.07347656 34.26363281 -0.07347656 34.26363281 -0.1484375 32.4921875 C-0.22351478 30.9531033 -0.29906043 29.4140419 -0.375 27.875 C-0.4059375 27.11445313 -0.436875 26.35390625 -0.46875 25.5703125 C-0.70096702 21.08078337 -1.18863169 17.18308796 -3 13 C-3.66 12.67 -4.32 12.34 -5 12 C-5 11.01 -5 10.02 -5 9 C-3.68 9 -2.36 9 -1 9 C-0.67 6.03 -0.34 3.06 0 0 Z " fill="#3A3A3A" transform="translate(237,256)"/>
<path d="M0 0 C0.66 0 1.32 0 2 0 C2 0.66 2 1.32 2 2 C1.34 2.66 0.68 3.32 0 4 C0.99 4 1.98 4 3 4 C3.66 5.32 4.32 6.64 5 8 C5.66 8 6.32 8 7 8 C7 5.36 7 2.72 7 0 C7.66 0 8.32 0 9 0 C9.33 2.97 9.66 5.94 10 9 C3.375 12 3.375 12 0 12 C-3.875 5.375 -3.875 5.375 -5 2 C-4.360625 1.855625 -3.72125 1.71125 -3.0625 1.5625 C-1.02454854 1.18992819 -1.02454854 1.18992819 0 0 Z " fill="#1749A0" transform="translate(175,168)"/>
<path d="M0 0 C0.33 0 0.66 0 1 0 C1 9.57 1 19.14 1 29 C4.3 29 7.6 29 11 29 C11 29.33 11 29.66 11 30 C7.7 30 4.4 30 1 30 C1 35.94 1 41.88 1 48 C-1.31 48 -3.62 48 -6 48 C-6 47.01 -6 46.02 -6 45 C-4.02 45.66 -2.04 46.32 0 47 C0 41.39 0 35.78 0 30 C-2.97 30 -5.94 30 -9 30 C-9 29.67 -9 29.34 -9 29 C-6.03 29 -3.06 29 0 29 C0 19.43 0 9.86 0 0 Z " fill="#D2F7FE" transform="translate(201,146)"/>
<path d="M0 0 C0.66 0 1.32 0 2 0 C2 1.65 2 3.3 2 5 C3.2065625 4.7215625 3.2065625 4.7215625 4.4375 4.4375 C5.7059375 4.2209375 5.7059375 4.2209375 7 4 C8 5 8 5 8.0625 8.0625 C8.041875 9.031875 8.02125 10.00125 8 11 C6.02 11 4.04 11 2 11 C2 10.34 2 9.68 2 9 C0.02 9.33 -1.96 9.66 -4 10 C-3.67 8.02 -3.34 6.04 -3 4 C-3.66 3.67 -4.32 3.34 -5 3 C-2.525 3.495 -2.525 3.495 0 4 C0 2.68 0 1.36 0 0 Z " fill="#0F47A6" transform="translate(192,147)"/>
<path d="M0 0 C1.32 0 2.64 0 4 0 C5.49559965 4.94607758 5.06102876 9.87358444 5 15 C0.05 15 -4.9 15 -10 15 C-9.67 14.01 -9.34 13.02 -9 12 C-7.741875 12.061875 -6.48375 12.12375 -5.1875 12.1875 C-1.86656162 12.2600349 -1.86656162 12.2600349 0.875 10.5 C1.24625 10.005 1.6175 9.51 2 9 C2.66 9 3.32 9 4 9 C3.71125 8.43410156 3.4225 7.86820313 3.125 7.28515625 C2.568125 6.18494141 2.568125 6.18494141 2 5.0625 C1.443125 3.96615234 1.443125 3.96615234 0.875 2.84765625 C0 1 0 1 0 0 Z " fill="#20449F" transform="translate(213,144)"/>
<path d="M0 0 C2.96865509 2.54456151 4.3619751 5.48994665 6 9 C5.01 10.32 4.02 11.64 3 13 C0.32423308 11.99382318 -0.7785108 11.45785454 -2.046875 8.8359375 C-2.27890625 8.02382813 -2.5109375 7.21171875 -2.75 6.375 C-2.99234375 5.55773437 -3.2346875 4.74046875 -3.484375 3.8984375 C-3.65453125 3.27195312 -3.8246875 2.64546875 -4 2 C-2.68 2 -1.36 2 0 2 C0 1.34 0 0.68 0 0 Z " fill="#202020" transform="translate(185,281)"/>
<path d="M0 0 C2.00233277 2.00233277 2.85657025 3.53600839 4.0625 6.0625 C5.25172763 8.72693243 5.25172763 8.72693243 7 11 C7.04080783 12.99958364 7.04254356 15.00045254 7 17 C5.35 17 3.7 17 2 17 C-0.52653315 10.83354621 -1.31281522 6.56407612 0 0 Z " fill="#1345B0" transform="translate(226,142)"/>
<path d="M0 0 C1.93166016 0.01740234 1.93166016 0.01740234 3.90234375 0.03515625 C5.19269531 0.04417969 6.48304688 0.05320313 7.8125 0.0625 C8.81152344 0.07410156 9.81054688 0.08570313 10.83984375 0.09765625 C11.16984375 1.08765625 11.49984375 2.07765625 11.83984375 3.09765625 C12.49984375 3.75765625 13.15984375 4.41765625 13.83984375 5.09765625 C8.22984375 4.76765625 2.61984375 4.43765625 -3.16015625 4.09765625 C-3.49015625 3.10765625 -3.82015625 2.11765625 -4.16015625 1.09765625 C-3.16015625 0.09765625 -3.16015625 0.09765625 0 0 Z M11.83984375 2.09765625 C14.83984375 3.09765625 14.83984375 3.09765625 14.83984375 3.09765625 Z " fill="#0C0C0C" transform="translate(242.16015625,250.90234375)"/>
<path d="M0 0 C1.65 0 3.3 0 5 0 C5 4.29 5 8.58 5 13 C-0.28 13 -5.56 13 -11 13 C-11 11.35 -11 9.7 -11 8 C-10.34 8 -9.68 8 -9 8 C-9 8.99 -9 9.98 -9 11 C-5.535 10.505 -5.535 10.505 -2 10 C-2 10.66 -2 11.32 -2 12 C-0.02 12 1.96 12 4 12 C3.67 10.02 3.34 8.04 3 6 C1.35 6 -0.3 6 -2 6 C-2 5.34 -2 4.68 -2 4 C-0.35 4 1.3 4 3 4 C3 3.01 3 2.02 3 1 C2.01 0.67 1.02 0.34 0 0 Z " fill="#1B4496" transform="translate(196,146)"/>
<path d="M0 0 C0.66 0.33 1.32 0.66 2 1 C2.59772099 3.9829661 2.74337815 6.96330805 3 10 C-0.63 10 -4.26 10 -8 10 C-8 8.68 -8 7.36 -8 6 C-7.195625 5.71125 -6.39125 5.4225 -5.5625 5.125 C-2.8673532 4.26737432 -2.8673532 4.26737432 -2 2 C-1.34 2 -0.68 2 0 2 C0 1.34 0 0.68 0 0 Z " fill="#1645A9" transform="translate(197,131)"/>
<path d="M0 0 C0.33 0 0.66 0 1 0 C1 5.28 1 10.56 1 16 C6.11332723 14.00698793 6.11332723 14.00698793 9.125 10.125 C9.60195312 9.44695312 10.07890625 8.76890625 10.5703125 8.0703125 C11.04210937 7.38710937 11.51390625 6.70390625 12 6 C12.99481018 4.66279004 13.99334117 3.32831313 15 2 C14.24488968 8.41843769 10.18623495 13.2736057 6 18 C2.52674819 19.1577506 -0.36067448 19.06866652 -4 19 C-2.68 18.67 -1.36 18.34 0 18 C0 12.06 0 6.12 0 0 Z " fill="#A3C6EE" transform="translate(202,176)"/>
<path d="M0 0 C1.32 0 2.64 0 4 0 C4 2.64 4 5.28 4 8 C4.99 8 5.98 8 7 8 C7 9.32 7 10.64 7 12 C4.69 11.67 2.38 11.34 0 11 C0 7.37 0 3.74 0 0 Z " fill="#1645A8" transform="translate(210,162)"/>
<path d="M0 0 C0.33 0.66 0.66 1.32 1 2 C1.99 2.33 2.98 2.66 4 3 C3.49396008 5.16874252 3.00016187 6.99967627 2 9 C1.34 9 0.68 9 0 9 C0 8.34 0 7.68 0 7 C-1.65 7.66 -3.3 8.32 -5 9 C-5.33 6.69 -5.66 4.38 -6 2 C-2.25 0 -2.25 0 0 0 Z " fill="#1547A0" transform="translate(210,133)"/>
<path d="M0 0 C2.13586678 3.20380017 2.23132175 4.01939967 2.125 7.6875 C2.10695312 8.49574219 2.08890625 9.30398438 2.0703125 10.13671875 C2.03550781 11.05904297 2.03550781 11.05904297 2 12 C1.34 11.34 0.68 10.68 0 10 C-0.99 11.98 -1.98 13.96 -3 16 C-3.66 16 -4.32 16 -5 16 C-5 11.71 -5 7.42 -5 3 C-4.67 3 -4.34 3 -4 3 C-3.87625 3.804375 -3.7525 4.60875 -3.625 5.4375 C-3.41875 6.283125 -3.2125 7.12875 -3 8 C-2.34 8.33 -1.68 8.66 -1 9 C-1.20625 7.88625 -1.4125 6.7725 -1.625 5.625 C-1.74875 4.42875 -1.8725 3.2325 -2 2 C-1.34 1.34 -0.68 0.68 0 0 Z " fill="#303030" transform="translate(219,266)"/>
<path d="M0 0 C1.65 0.33 3.3 0.66 5 1 C5 1.33 5 1.66 5 2 C9.95 2 14.9 2 20 2 C20 2.66 20 3.32 20 4 C18.76636719 4.03867188 18.76636719 4.03867188 17.5078125 4.078125 C9.04978811 4.50786296 2.52978097 6.23510952 -5 10 C-5 9.34 -5 8.68 -5 8 C-5.66 7.67 -6.32 7.34 -7 7 C-5.02 6.34 -3.04 5.68 -1 5 C-0.67 3.35 -0.34 1.7 0 0 Z " fill="#2A56A7" transform="translate(187,122)"/>
<path d="M0 0 C5.94 1.485 5.94 1.485 12 3 C6.45783133 7.15662651 6.45783133 7.15662651 3 8 C0.1875 6.625 0.1875 6.625 -2 5 C-1.34 3.35 -0.68 1.7 0 0 Z " fill="#161616" transform="translate(190,290)"/>
<path d="M0 0 C0.99 1.32 1.98 2.64 3 4 C3.66 3.67 4.32 3.34 5 3 C5.19491452 4.45736087 5.38069358 5.91594593 5.5625 7.375 C5.66691406 8.18710937 5.77132812 8.99921875 5.87890625 9.8359375 C6 12 6 12 5 14 C3.68 14 2.36 14 1 14 C-0.38226016 11.23547967 -0.09525387 8.9538637 -0.0625 5.875 C-0.05347656 4.77929688 -0.04445312 3.68359375 -0.03515625 2.5546875 C-0.02355469 1.71164062 -0.01195312 0.86859375 0 0 Z " fill="#0C0C0C" transform="translate(180,269)"/>
<path d="M0 0 C1.32 0 2.64 0 4 0 C4.76815988 4.35290596 5.07251092 7.7099563 4 12 C4 12.99 4 13.98 4 15 C3.01 14.67 2.02 14.34 1 14 C-0.20568053 9.32798795 -0.09382426 4.78503708 0 0 Z " fill="#0F0F0F" transform="translate(214,260)"/>
<path d="M0 0 C0 0.33 0 0.66 0 1 C-1.65 1 -3.3 1 -5 1 C-5 2.65 -5 4.3 -5 6 C-6.11375 5.95875 -7.2275 5.9175 -8.375 5.875 C-12.04366025 5.58878141 -12.04366025 5.58878141 -14 8 C-14 6.02 -14 4.04 -14 2 C-8.83183314 -0.67318976 -5.79841127 -0.98463588 0 0 Z " fill="#1948AC" transform="translate(199,163)"/>
<path d="M0 0 C4.06887569 0.28387505 5.74082122 0.77462715 8.875 3.5 C11 6 11 6 11 7 C9.35 7 7.7 7 6 7 C5.67 7.66 5.34 8.32 5 9 C3.2925002 7.71937515 1.62626404 6.38232443 0 5 C0 3.33333333 0 1.66666667 0 0 Z " fill="#2C2C2C" transform="translate(253,251)"/>
<path d="M0 0 C0.33 0 0.66 0 1 0 C1 7.59 1 15.18 1 23 C0.34 23 -0.32 23 -1 23 C-2.17088918 18.55236871 -1.95349457 14.34983125 -1.625 9.8125 C-1.58117187 9.08869141 -1.53734375 8.36488281 -1.4921875 7.61914062 C-1.13375235 2.2675047 -1.13375235 2.2675047 0 0 Z " fill="#EEF7FE" transform="translate(137,109)"/>
<path d="M0 0 C0.99 0.33 1.98 0.66 3 1 C3.73046875 3.06640625 3.73046875 3.06640625 4.1875 5.5625 C4.34605469 6.38878906 4.50460938 7.21507812 4.66796875 8.06640625 C4.77753906 8.70449219 4.88710937 9.34257812 5 10 C3.68 10.33 2.36 10.66 1 11 C1 13.97 1 16.94 1 20 C0.67 20 0.34 20 0 20 C0 13.4 0 6.8 0 0 Z " fill="#161616" transform="translate(232,268)"/>
<path d="M0 0 C0.66 1.32 1.32 2.64 2 4 C5.63 4 9.26 4 13 4 C13 4.66 13 5.32 13 6 C13.66 6.33 14.32 6.66 15 7 C12.68802845 7.19390729 10.3753971 7.37996367 8.0625 7.5625 C6.77472656 7.66691406 5.48695313 7.77132812 4.16015625 7.87890625 C3.11730469 7.91886719 2.07445312 7.95882812 1 8 C0 7 0 7 -0.0625 3.4375 C-0.041875 2.303125 -0.02125 1.16875 0 0 Z " fill="#26519F" transform="translate(186,168)"/>
<path d="M0 0 C0.33 0.66 0.66 1.32 1 2 C3.01669827 3.13350534 3.01669827 3.13350534 5 4 C2 6 2 6 -0.125 6.5 C-0.74375 6.665 -1.3625 6.83 -2 7 C-2.33 7.66 -2.66 8.32 -3 9 C-4.32 8.67 -5.64 8.34 -7 8 C-5.98823563 4.59679258 -5.35156418 3.24274669 -2.375 1.1875 C-1.59125 0.795625 -0.8075 0.40375 0 0 Z " fill="#141414" transform="translate(191,251)"/>
<path d="M0 0 C1.78409802 3.06246747 2.22880021 5.22079273 2.125 8.75 C2.10695312 9.54921875 2.08890625 10.3484375 2.0703125 11.171875 C2.03550781 12.07679688 2.03550781 12.07679688 2 13 C1.01 13.33 0.02 13.66 -1 14 C-2.73849628 12.26150372 -2.17216296 9.9213363 -2.1875 7.5625 C-2.20167969 6.57378906 -2.21585938 5.58507812 -2.23046875 4.56640625 C-2 2 -2 2 0 0 Z " fill="#1346AE" transform="translate(180,163)"/>
<path d="M0 0 C0.99 0 1.98 0 3 0 C3 4.53472086 2.93454521 8.56091024 2 13 C3.32 12.01 4.64 11.02 6 10 C5.67 11.65 5.34 13.3 5 15 C3.35 15 1.7 15 0 15 C-1.3770046 11.17498723 -0.65644615 7.93867692 0 4 C0 3.34 0 2.68 0 2 C0 1.34 0 0.68 0 0 Z " fill="#0E44A7" transform="translate(174,142)"/>
<path d="M0 0 C5.28 0 10.56 0 16 0 C16 4.29 16 8.58 16 13 C15.67 13 15.34 13 15 13 C15 9.04 15 5.08 15 1 C13.246875 1.268125 11.49375 1.53625 9.6875 1.8125 C8.70136719 1.96332031 7.71523437 2.11414063 6.69921875 2.26953125 C3.87300731 3.03436705 2.8040872 3.75258762 1 6 C0.67 4.02 0.34 2.04 0 0 Z " fill="#1F458A" transform="translate(185,161)"/>
<path d="M0 0 C4.67692308 1.47692308 4.67692308 1.47692308 6.3125 4.125 C6.539375 4.74375 6.76625 5.3625 7 6 C6.34 6 5.68 6 5 6 C4.67 7.32 4.34 8.64 4 10 C3.34 10 2.68 10 2 10 C-1.07692308 4.58461538 -1.07692308 4.58461538 -0.6875 1.625 C-0.460625 1.08875 -0.23375 0.5525 0 0 Z " fill="#111111" transform="translate(258,275)"/>
<path d="M0 0 C-3.75 3 -3.75 3 -6 3 C-5.67 5.64 -5.34 8.28 -5 11 C-8.2910841 7.39042389 -9.54663921 4.87362847 -10 0 C-6.33694766 -0.74926071 -3.57644848 -1.2380014 0 0 Z " fill="#284EA1" transform="translate(198,177)"/>
<path d="M0 0 C0.99 0.495 0.99 0.495 2 1 C3.24024621 5.96098482 3.10151176 10.92441192 3 16 C2.34 16 1.68 16 1 16 C0.67 16.66 0.34 17.32 0 18 C0 12.06 0 6.12 0 0 Z " fill="#2053A9" transform="translate(141,114)"/>
<path d="M0 0 C6.6 0.6 6.6 0.6 9 3 C8.67 3.66 8.34 4.32 8 5 C7.64830932 6.32860925 7.31229724 7.66158328 7 9 C5.02 8.01 3.04 7.02 1 6 C1.66 5.01 2.32 4.02 3 3 C1.68 2.34 0.36 1.68 -1 1 C-0.67 0.67 -0.34 0.34 0 0 Z " fill="#1D1D1D" transform="translate(202,250)"/>
<path d="M0 0 C2 2 2 2 2 5 C-4.435 5.495 -4.435 5.495 -11 6 C-10.67 4.35 -10.34 2.7 -10 1 C-9.34 1.66 -8.68 2.32 -8 3 C-7.34 2.34 -6.68 1.68 -6 1 C-5.34 1.33 -4.68 1.66 -4 2 C-4 2.66 -4 3.32 -4 4 C-3.34 4 -2.68 4 -2 4 C-1.34 2.68 -0.68 1.36 0 0 Z " fill="#244F9F" transform="translate(214,138)"/>
<path d="M0 0 C-2.475 3.465 -2.475 3.465 -5 7 C-5.66 6.67 -6.32 6.34 -7 6 C-7.66 6.66 -8.32 7.32 -9 8 C-9.99 6.68 -10.98 5.36 -12 4 C-8.71298741 1.21868166 -4.24676932 -2.12338466 0 0 Z " fill="#2956B2" transform="translate(194,129)"/>
<path d="M0 0 C1.5778125 0.433125 1.5778125 0.433125 3.1875 0.875 C3.1875 1.535 3.1875 2.195 3.1875 2.875 C1.7557384 3.57437202 0.31682968 4.25912718 -1.125 4.9375 C-2.32576172 5.51177734 -2.32576172 5.51177734 -3.55078125 6.09765625 C-5.8125 6.875 -5.8125 6.875 -8.8125 5.875 C-4.75096154 -0.15576923 -4.75096154 -0.15576923 0 0 Z " fill="#31579A" transform="translate(217.8125,185.125)"/>
<path d="M0 0 C0.33 0 0.66 0 1 0 C1.05437607 1.58294782 1.09296271 3.16644256 1.125 4.75 C1.14820313 5.63171875 1.17140625 6.5134375 1.1953125 7.421875 C0.99139502 10.1135858 0.36551721 11.69904974 -1 14 C-3.475 13.01 -3.475 13.01 -6 12 C-6 11.34 -6 10.68 -6 10 C-5.01 10 -4.02 10 -3 10 C-2.01 6.7 -1.02 3.4 0 0 Z " fill="#202020" transform="translate(219,272)"/>
<path d="M0 0 C0.66 0.33 1.32 0.66 2 1 C1.67 2.65 1.34 4.3 1 6 C2.1446875 6.2165625 2.1446875 6.2165625 3.3125 6.4375 C6 7 6 7 9 8 C8.67 9.32 8.34 10.64 8 12 C3.545 10.02 3.545 10.02 -1 8 C-0.67 5.36 -0.34 2.72 0 0 Z " fill="#2A4E91" transform="translate(219,169)"/>
<path d="M0 0 C2 2 2 2 2.046875 4.3125 C1.94890625 5.199375 1.8509375 6.08625 1.75 7 C1.66234375 7.886875 1.5746875 8.77375 1.484375 9.6875 C1 12 1 12 -1 14 C-2.16983345 11.6603331 -2.1661241 10.16608473 -2.1875 7.5625 C-2.20167969 6.78003906 -2.21585937 5.99757813 -2.23046875 5.19140625 C-2 3 -2 3 0 0 Z " fill="#0A0A0A" transform="translate(100,260)"/>
<path d="M0 0 C2.64 0 5.28 0 8 0 C7.5206753 4.31392226 6.2542015 6.16569547 3 9 C3 6.36 3 3.72 3 1 C2.01 0.67 1.02 0.34 0 0 Z " fill="#1E4B96" transform="translate(208,177)"/>
<path d="M0 0 C4.96996601 1.16940377 8.23910808 2.34972254 12 6 C12.33 6.99 12.66 7.98 13 9 C12.01 9.495 12.01 9.495 11 10 C11 9.01 11 8.02 11 7 C9.35 6.67 7.7 6.34 6 6 C6 5.34 6 4.68 6 4 C4.02 3.34 2.04 2.68 0 2 C0 1.34 0 0.68 0 0 Z " fill="#292929" transform="translate(122,250)"/>
<path d="M0 0 C1.65 0 3.3 0 5 0 C5.33 1.98 5.66 3.96 6 6 C5.01 6 4.02 6 3 6 C2.67 6.66 2.34 7.32 2 8 C1.34 7.67 0.68 7.34 0 7 C0 4.69 0 2.38 0 0 Z " fill="#0D46A7" transform="translate(205,179)"/>
<path d="M0 0 C0.66 0 1.32 0 2 0 C2.67467562 1.74692795 3.33944156 3.49768525 4 5.25 C4.556875 6.71179688 4.556875 6.71179688 5.125 8.203125 C6 11 6 11 6 15 C5.34 15 4.68 15 4 15 C3.566875 13.3603125 3.566875 13.3603125 3.125 11.6875 C2.18106796 7.95986155 2.18106796 7.95986155 0 5 C-0.125 2.3125 -0.125 2.3125 0 0 Z " fill="#254E94" transform="translate(229,144)"/>
<path d="M0 0 C2.64 0 5.28 0 8 0 C8 1.65 8 3.3 8 5 C7.67 4.34 7.34 3.68 7 3 C4.02934491 3.34227572 4.02934491 3.34227572 1 4 C0.67 4.66 0.34 5.32 0 6 C0 4.02 0 2.04 0 0 Z " fill="#214995" transform="translate(169,161)"/>
<path d="M0 0 C0.99 0.66 1.98 1.32 3 2 C2.7834375 3.04800781 2.7834375 3.04800781 2.5625 4.1171875 C2.376875 5.02726563 2.19125 5.93734375 2 6.875 C1.814375 7.77992188 1.62875 8.68484375 1.4375 9.6171875 C0.93980405 11.92407903 0.93980405 11.92407903 1 14 C2.32 14.33 3.64 14.66 5 15 C3.33388095 15.042721 1.66617115 15.04063832 0 15 C-0.33 14.67 -0.66 14.34 -1 14 C-1 11.96994518 -0.99642412 9.93935573 -0.9375 7.91015625 C-0.86973661 5.912423 -0.86973661 5.912423 -2 4 C-1.0625 1.875 -1.0625 1.875 0 0 Z " fill="#1E49A4" transform="translate(173,143)"/>
<path d="M0 0 C1.32 1.65 2.64 3.3 4 5 C2.515 7.475 2.515 7.475 1 10 C-0.32 9.34 -1.64 8.68 -3 8 C-1.68 7.67 -0.36 7.34 1 7 C0.01 6.34 -0.98 5.68 -2 5 C-1.125 1.125 -1.125 1.125 0 0 Z " fill="#323232" transform="translate(187,284)"/>
<path d="M0 0 C2.64 0 5.28 0 8 0 C8 1.32 8 2.64 8 4 C5.36 4 2.72 4 0 4 C0 2.68 0 1.36 0 0 Z " fill="#0E0E0E" transform="translate(299,251)"/>
<path d="M0 0 C0.33 0 0.66 0 1 0 C1 5.61 1 11.22 1 17 C-0.98 16.34 -2.96 15.68 -5 15 C-5.33 14.34 -5.66 13.68 -6 13 C-5.01 12.67 -4.02 12.34 -3 12 C-3 12.66 -3 13.32 -3 14 C-2.34 13.67 -1.68 13.34 -1 13 C-0.53045739 9.95418731 -0.53045739 9.95418731 -0.375 6.4375 C-0.30023438 5.23996094 -0.22546875 4.04242188 -0.1484375 2.80859375 C-0.09945312 1.88175781 -0.05046875 0.95492187 0 0 Z " fill="#264F95" transform="translate(200,176)"/>
<path d="M0 0 C0.33 0.99 0.66 1.98 1 3 C-0.98 4.32 -2.96 5.64 -5 7 C-4.67 5.68 -4.34 4.36 -4 3 C-8.455 4.485 -8.455 4.485 -13 6 C-10.78511966 2.67767949 -10.13888343 2.4289756 -6.5 1.3125 C-5.7059375 1.06113281 -4.911875 0.80976562 -4.09375 0.55078125 C-2 0 -2 0 0 0 Z " fill="#B5D7F6" transform="translate(196,126)"/>
<path d="M0 0 C1.65 0.33 3.3 0.66 5 1 C5 3.64 5 6.28 5 9 C4.67 9 4.34 9 4 9 C3.67 7.02 3.34 5.04 3 3 C2.67 3.66 2.34 4.32 2 5 C-0.0625 5.625 -0.0625 5.625 -2 6 C-2 5.34 -2 4.68 -2 4 C-2.99 3.67 -3.98 3.34 -5 3 C-3.35 2.67 -1.7 2.34 0 2 C0 1.34 0 0.68 0 0 Z " fill="#393939" transform="translate(125,289)"/>
<path d="M0 0 C3.12290635 0.48578543 5.99580359 0.9986012 9 2 C9 2.99 9 3.98 9 5 C7.3125 5.75 7.3125 5.75 5 6 C2.25 4.1875 2.25 4.1875 0 2 C0 1.34 0 0.68 0 0 Z " fill="#171717" transform="translate(124,255)"/>
<path d="M0 0 C8.93630573 1.9044586 8.93630573 1.9044586 11 5 C11 5.66 11 6.32 11 7 C11.99 7.33 12.98 7.66 14 8 C13.67 8.99 13.34 9.98 13 11 C12.48050781 10.52949219 11.96101562 10.05898437 11.42578125 9.57421875 C7.76822319 6.30878337 4.2921774 3.41434979 0 1 C0 0.67 0 0.34 0 0 Z " fill="#235097" transform="translate(215,127)"/>
<path d="M0 0 C0.33 1.65 0.66 3.3 1 5 C-0.32 5 -1.64 5 -3 5 C-3.33 5.66 -3.66 6.32 -4 7 C-4.99 6.34 -5.98 5.68 -7 5 C-7 4.01 -7 3.02 -7 2 C-4.35261084 0.5393715 -3.10551666 0 0 0 Z " fill="#174CA8" transform="translate(211,145)"/>
<path d="M0 0 C0.33 0.99 0.66 1.98 1 3 C0.319375 3.8353125 0.319375 3.8353125 -0.375 4.6875 C-2.7289971 8.03741895 -2.66216596 10.94599148 -3 15 C-3.33 15 -3.66 15 -4 15 C-4.10807131 13.06372231 -4.1856225 11.12572244 -4.25 9.1875 C-4.29640625 8.10855469 -4.3428125 7.02960938 -4.390625 5.91796875 C-4 3 -4 3 -1.984375 1.11328125 C-1.32953125 0.74589844 -0.6746875 0.37851563 0 0 Z " fill="#22489A" transform="translate(145,98)"/>
<path d="M0 0 C0.33 0 0.66 0 1 0 C3.27678571 8.03571429 3.27678571 8.03571429 2 12 C1.01 12 0.02 12 -1 12 C-1.02712066 10.56260487 -1.04645067 9.12506137 -1.0625 7.6875 C-1.07410156 6.88699219 -1.08570312 6.08648437 -1.09765625 5.26171875 C-1 3 -1 3 0 0 Z " fill="#333333" transform="translate(97,266)"/>
<path d="M0 0 C0.66 0.33 1.32 0.66 2 1 C1.67 4.3 1.34 7.6 1 11 C0.01 11 -0.98 11 -2 11 C-1.85957123 9.35369672 -1.71250671 7.70795821 -1.5625 6.0625 C-1.48128906 5.14597656 -1.40007812 4.22945312 -1.31640625 3.28515625 C-1 1 -1 1 0 0 Z " fill="#234987" transform="translate(171,148)"/>
<path d="M0 0 C4.875 2.625 4.875 2.625 6 6 C3.64561267 7.42944945 2.51967567 8.08661261 -0.25 7.625 C-0.8275 7.41875 -1.405 7.2125 -2 7 C-1.01 6.34 -0.02 5.68 1 5 C1 4.01 1 3.02 1 2 C0.34 1.67 -0.32 1.34 -1 1 C-0.67 0.67 -0.34 0.34 0 0 Z " fill="#1C4B93" transform="translate(220,133)"/>
<path d="M0 0 C0.66 0.66 1.32 1.32 2 2 C-2.2881369 2.97457657 -4.17818892 3.03033714 -8 1 C-11.16695956 0.83275263 -11.16695956 0.83275263 -14 1 C-14 0.67 -14 0.34 -14 0 C-9.34277373 -1.35209795 -4.69619661 -1.06102674 0 0 Z " fill="#153F93" transform="translate(214,124)"/>
<path d="M0 0 C2.64 0 5.28 0 8 0 C8.33 0.99 8.66 1.98 9 3 C5.7 3 2.4 3 -1 3 C-0.67 2.01 -0.34 1.02 0 0 Z " fill="#ECECEC" transform="translate(280,247)"/>
<path d="M0 0 C1.32 0.33 2.64 0.66 4 1 C3.67 5.62 3.34 10.24 3 15 C2.34 15 1.68 15 1 15 C-0.20577428 10.05632546 0.3709322 6.79137588 2 2 C1.34 2 0.68 2 0 2 C0 1.34 0 0.68 0 0 Z " fill="#1B4BA8" transform="translate(175,140)"/>
<path d="M0 0 C0.78375 0.185625 1.5675 0.37125 2.375 0.5625 C4.97089775 1.25962266 4.97089775 1.25962266 7 0 C6.67 1.65 6.34 3.3 6 5 C5.01 5.33 4.02 5.66 3 6 C1.5 4.6875 1.5 4.6875 0 3 C0 2.01 0 1.02 0 0 Z " fill="#124597" transform="translate(181,134)"/>
<path d="M0 0 C0.99 0 1.98 0 3 0 C3.33 1.32 3.66 2.64 4 4 C4.99 4 5.98 4 7 4 C7 4.99 7 5.98 7 7 C5.02 7 3.04 7 1 7 C0.67 4.69 0.34 2.38 0 0 Z " fill="#0D0D0D" transform="translate(99,283)"/>
<path d="M0 0 C1.66297454 3.32594908 2.63931995 5.39319953 3 9 C2.0625 11.3125 2.0625 11.3125 1 13 C1 12.01 1 11.02 1 10 C0.34 10 -0.32 10 -1 10 C-0.67 6.7 -0.34 3.4 0 0 Z " fill="#2056B0" transform="translate(186,144)"/>
<path d="M0 0 C0.33 0 0.66 0 1 0 C2.6290678 4.79137588 3.20577428 8.05632546 2 13 C1.34 13 0.68 13 0 13 C0 8.71 0 4.42 0 0 Z " fill="#424242" transform="translate(214,269)"/>
<path d="M0 0 C3.3 0.66 6.6 1.32 10 2 C6.38863788 3.80568106 5.455469 4.24851563 1.75 4.125 C-0.10625 4.063125 -0.10625 4.063125 -2 4 C-1.34 2.68 -0.68 1.36 0 0 Z " fill="#194790" transform="translate(192,193)"/>
<path d="M0 0 C0.66 0 1.32 0 2 0 C2.33 2.97 2.66 5.94 3 9 C1.68 9.33 0.36 9.66 -1 10 C-1.33 9.34 -1.66 8.68 -2 8 C-1.34 8 -0.68 8 0 8 C0 5.36 0 2.72 0 0 Z " fill="#245194" transform="translate(182,168)"/>
<path d="M0 0 C2 1.625 2 1.625 4 4 C4.25 7.25 4.25 7.25 4 10 C3.01 10 2.02 10 1 10 C0.67 6.7 0.34 3.4 0 0 Z " fill="#16449E" transform="translate(229,149)"/>
<path d="M0 0 C0.103125 0.639375 0.20625 1.27875 0.3125 1.9375 C0.539375 2.618125 0.76625 3.29875 1 4 C1.99 4.33 2.98 4.66 4 5 C3.01 5.99 2.02 6.98 1 8 C0.67 7.34 0.34 6.68 0 6 C-2.01669827 4.86649466 -2.01669827 4.86649466 -4 4 C-2.68 2.68 -1.36 1.36 0 0 Z " fill="#232323" transform="translate(211,287)"/>
<path d="M0 0 C1.32 0.33 2.64 0.66 4 1 C4.33 2.98 4.66 4.96 5 7 C3.68 6.67 2.36 6.34 1 6 C0.67 4.02 0.34 2.04 0 0 Z " fill="#1543A0" transform="translate(187,144)"/>
<path d="M0 0 C2.97 0 5.94 0 9 0 C8.01 0.495 8.01 0.495 7 1 C6.34786708 3.02463255 6.34786708 3.02463255 6 5 C5.34 5 4.68 5 4 5 C4 4.34 4 3.68 4 3 C2.35 3 0.7 3 -1 3 C-0.67 2.01 -0.34 1.02 0 0 Z " fill="#080808" transform="translate(125,275)"/>
<path d="M0 0 C0.99 0.33 1.98 0.66 3 1 C3 1.66 3 2.32 3 3 C2.34 3 1.68 3 1 3 C0.67 4.32 0.34 5.64 0 7 C-1.32 6.67 -2.64 6.34 -4 6 C-2.68 4.02 -1.36 2.04 0 0 Z " fill="#1C4698" transform="translate(194,130)"/>
<path d="M0 0 C2.31 0.33 4.62 0.66 7 1 C4.14693203 3.32472205 1.45925163 4.7508258 -2 6 C-2.66 5.34 -3.32 4.68 -4 4 C-2.68 4 -1.36 4 0 4 C0 2.68 0 1.36 0 0 Z " fill="#2B2B2B" transform="translate(195,292)"/>
<path d="M0 0 C1.02852708 3.08558124 1 4.77356651 1 8 C0.401875 7.690625 -0.19625 7.38125 -0.8125 7.0625 C-3.08956772 5.89790296 -3.08956772 5.89790296 -6 5 C-5.01 4.67 -4.02 4.34 -3 4 C-3 3.34 -3 2.68 -3 2 C-2.01 1.34 -1.02 0.68 0 0 Z " fill="#292929" transform="translate(107,252)"/>
<path d="M0 0 C0.33 1.32 0.66 2.64 1 4 C1.66 4 2.32 4 3 4 C4.6875 5.75 4.6875 5.75 6 8 C5.58203125 10.140625 5.58203125 10.140625 5 12 C3.96674014 10.57140593 2.94872366 9.13177617 1.9375 7.6875 C1.36902344 6.88699219 0.80054688 6.08648437 0.21484375 5.26171875 C-0.18605469 4.51535156 -0.58695313 3.76898438 -1 3 C-0.67 2.01 -0.34 1.02 0 0 Z " fill="#9AC6ED" transform="translate(209,126)"/>
<path d="M0 0 C2.97 0.495 2.97 0.495 6 1 C5.67 1.99 5.34 2.98 5 4 C2.69 3.67 0.38 3.34 -2 3 C-1.34 2.01 -0.68 1.02 0 0 Z " fill="#0C489B" transform="translate(199,119)"/>
<path d="M0 0 C0.625 1.875 0.625 1.875 1 4 C-3 8 -3 8 -5 9 C-5.33 8.01 -5.66 7.02 -6 6 C-4 4 -2 2 0 0 Z " fill="#DDDDDD" transform="translate(128,291)"/>
<path d="M0 0 C-0.75 1.9375 -0.75 1.9375 -2 4 C-4.125 4.75 -4.125 4.75 -6 5 C-6.33 4.34 -6.66 3.68 -7 3 C-4.49955934 -0.00052879 -4.2621484 0 0 0 Z " fill="#111111" transform="translate(263,268)"/>
<path d="M0 0 C0.99 0 1.98 0 3 0 C3 2.97 3 5.94 3 9 C2.34 9 1.68 9 1 9 C0.67 6.03 0.34 3.06 0 0 Z " fill="#E5EFF9" transform="translate(135,123)"/>
<path d="M0 0 C0.33 0.99 0.66 1.98 1 3 C-0.4375 5.6875 -0.4375 5.6875 -2 8 C-3.32 7.34 -4.64 6.68 -6 6 C-5.195625 5.38125 -4.39125 4.7625 -3.5625 4.125 C-0.96125481 2.25835959 -0.96125481 2.25835959 0 0 Z " fill="#D1D1D1" transform="translate(263,268)"/>
<path d="M0 0 C0.99 0.33 1.98 0.66 3 1 C3.33 2.65 3.66 4.3 4 6 C3.01 6.495 3.01 6.495 2 7 C1.34 6.67 0.68 6.34 0 6 C-0.6875 3.5 -0.6875 3.5 -1 1 C-0.67 0.67 -0.34 0.34 0 0 Z " fill="#0B0B0B" transform="translate(210,253)"/>
<path d="M0 0 C3.71368887 1.23789629 4.77354181 2.85224877 7 6 C7 6.66 7 7.32 7 8 C3.64379729 6.61122646 1.92701272 5.08322035 0 2 C0 1.34 0 0.68 0 0 Z " fill="#34559A" transform="translate(139,214)"/>
<path d="M0 0 C4.75 0.75 4.75 0.75 7 3 C6.030625 3.12375 5.06125 3.2475 4.0625 3.375 C3.051875 3.58125 2.04125 3.7875 1 4 C0.67 4.66 0.34 5.32 0 6 C-0.66 5.67 -1.32 5.34 -2 5 C-1.34 3.35 -0.68 1.7 0 0 Z " fill="#2E56A7" transform="translate(217,178)"/>
<path d="M0 0 C2.64 0 5.28 0 8 0 C8 0.99 8 1.98 8 3 C5.36 3 2.72 3 0 3 C0 2.01 0 1.02 0 0 Z " fill="#1E4C95" transform="translate(188,140)"/>
<path d="M0 0 C0.99 0.33 1.98 0.66 3 1 C2.67 2.65 2.34 4.3 2 6 C1.01 6 0.02 6 -1 6 C-1.042721 4.33388095 -1.04063832 2.66617115 -1 1 C-0.67 0.67 -0.34 0.34 0 0 Z " fill="#0949B3" transform="translate(260,107)"/>
<path d="M0 0 C1.65 0.33 3.3 0.66 5 1 C4.1875 2.9375 4.1875 2.9375 3 5 C2.01 5.33 1.02 5.66 0 6 C-0.66 5.34 -1.32 4.68 -2 4 C-1.34 3.34 -0.68 2.68 0 2 C0 1.34 0 0.68 0 0 Z " fill="#232323" transform="translate(108,291)"/>
<path d="M0 0 C1.98 0.495 1.98 0.495 4 1 C3.67 2.65 3.34 4.3 3 6 C1.68 6 0.36 6 -1 6 C-0.67 4.02 -0.34 2.04 0 0 Z " fill="#090909" transform="translate(212,286)"/>
<path d="M0 0 C0.99 0.33 1.98 0.66 3 1 C2.67 2.32 2.34 3.64 2 5 C-0.97 4.505 -0.97 4.505 -4 4 C-2.68 3.34 -1.36 2.68 0 2 C0 1.34 0 0.68 0 0 Z " fill="#E2EFF5" transform="translate(261,219)"/>
<path d="M0 0 C0.66 0 1.32 0 2 0 C3.38232443 1.62626404 4.71937515 3.2925002 6 5 C4.68 5.33 3.36 5.66 2 6 C1.01 4.35 0.02 2.7 -1 1 C-0.67 0.67 -0.34 0.34 0 0 Z " fill="#274F9C" transform="translate(173,174)"/>
<path d="M0 0 C0.99 0.33 1.98 0.66 3 1 C3.33 2.98 3.66 4.96 4 7 C0.89448334 7 -0.35261084 6.4606285 -3 5 C-2.360625 4.87625 -1.72125 4.7525 -1.0625 4.625 C-0.381875 4.41875 0.29875 4.2125 1 4 C1.33 3.34 1.66 2.68 2 2 C1.34 2 0.68 2 0 2 C0 1.34 0 0.68 0 0 Z " fill="#0E449A" transform="translate(223,169)"/>
<path d="M0 0 C1.32 0 2.64 0 4 0 C4 0.66 4 1.32 4 2 C3.34 2 2.68 2 2 2 C2 3.65 2 5.3 2 7 C1.01 7.495 1.01 7.495 0 8 C0 5.36 0 2.72 0 0 Z " fill="#0C47AD" transform="translate(210,162)"/>
<path d="M0 0 C0.66 0 1.32 0 2 0 C2.33 2.64 2.66 5.28 3 8 C2.01 8.33 1.02 8.66 0 9 C0 6.03 0 3.06 0 0 Z " fill="#134794" transform="translate(236,148)"/>
<path d="M0 0 C1.32 0.66 2.64 1.32 4 2 C3.67 3.65 3.34 5.3 3 7 C2.54625 6.505 2.0925 6.01 1.625 5.5 C0.12364481 3.77390663 0.12364481 3.77390663 -2 4 C-1.34 2.68 -0.68 1.36 0 0 Z " fill="#194396" transform="translate(226,140)"/>
<path d="M0 0 C0 0.66 0 1.32 0 2 C0.66 2.33 1.32 2.66 2 3 C0.02 3.33 -1.96 3.66 -4 4 C-4 3.34 -4 2.68 -4 2 C-4.99 1.67 -5.98 1.34 -7 1 C-4.53721199 -0.231394 -2.7204945 -0.07159196 0 0 Z " fill="#070707" transform="translate(126,252)"/>
<path d="M0 0 C0.99 0 1.98 0 3 0 C3.36923077 5.53846154 3.36923077 5.53846154 1.5 7.875 C0.7575 8.431875 0.7575 8.431875 0 9 C0 6 0 3 0 0 Z " fill="#134496" transform="translate(174,142)"/>
<path d="M0 0 C2.31 0.66 4.62 1.32 7 2 C6.01 3.485 6.01 3.485 5 5 C4.01 4.67 3.02 4.34 2 4 C2 3.34 2 2.68 2 2 C1.34 2 0.68 2 0 2 C0 1.34 0 0.68 0 0 Z " fill="#2E54A3" transform="translate(210,128)"/>
<path d="M0 0 C0.99 0.66 1.98 1.32 3 2 C2.01 4.31 1.02 6.62 0 9 C-2 6 -2 6 -1.6875 3.9375 C-1 2 -1 2 0 0 Z " fill="#E4F5FD" transform="translate(139,99)"/>
<path d="M0 0 C2.31 0 4.62 0 7 0 C5.75 1.5 5.75 1.5 4 3 C2.68 3 1.36 3 0 3 C0 2.01 0 1.02 0 0 Z " fill="#EDEDED" transform="translate(285,256)"/>
<path d="M0 0 C0.66 0 1.32 0 2 0 C2.66 1.98 3.32 3.96 4 6 C2.68 6 1.36 6 0 6 C0 4.02 0 2.04 0 0 Z " fill="#204B93" transform="translate(167,170)"/>
<path d="M0 0 C2.475 0.495 2.475 0.495 5 1 C5 2.98 5 4.96 5 7 C4.34 7 3.68 7 3 7 C2.01 4.69 1.02 2.38 0 0 Z " fill="#284F9D" transform="translate(230,140)"/>
<path d="M0 0 C0.33 1.32 0.66 2.64 1 4 C-0.32 4 -1.64 4 -3 4 C-3.66 3.34 -4.32 2.68 -5 2 C-2 0 -2 0 0 0 Z " fill="#1547B6" transform="translate(210,133)"/>
<path d="M0 0 C1.65 0.33 3.3 0.66 5 1 C3.35 2.65 1.7 4.3 0 6 C-1 3 -1 3 0 0 Z " fill="#1C4896" transform="translate(176,131)"/>
<path d="M0 0 C0.66 0.33 1.32 0.66 2 1 C0.35 2.65 -1.3 4.3 -3 6 C-3.66 5.01 -4.32 4.02 -5 3 C-2.625 1.4375 -2.625 1.4375 0 0 Z " fill="#264A8B" transform="translate(192,128)"/>
</svg>